<svg xmlns="http://www.w3.org/2000/svg" width="55" height="50"><g fill="none" fill-rule="evenodd" stroke="#00A2E0" stroke-width="2" opacity=".202"><path stroke-linecap="round" d="M41 24.707l-9 9"/><path d="M27.516 48.43c.065-.056.134-.119.21-.186.495-.444 1.192-1.095 2.06-1.922a489.298 489.298 0 0 0 6.433-6.272c5.372-5.321 10.524-10.58 12.928-13.223C52.592 22.865 54 19.905 54 15.982c0-7.89-6.208-14.275-13.853-14.275-4.697 0-8.697 2.426-11.83 6.874l-.793 1.126-.825-1.103c-3.413-4.564-7.218-6.897-11.848-6.897C7.207 1.707 1 8.09 1 15.982c0 3.953 1.464 7.048 4.81 10.8l.246.248.696.705A3225.403 3225.403 0 0 0 16.817 37.89l.195.196a988.137 988.137 0 0 0 7.548 7.508 171.558 171.558 0 0 0 2.538 2.45c.157.148.296.277.418.388z"/></g></svg>