<svg xmlns="http://www.w3.org/2000/svg" width="1280" height="629"><defs><linearGradient id="a" x1="100%" x2="0%" y1="50%" y2="50%"><stop offset="0%" stop-color="#327CFA"/><stop offset="100%" stop-color="#1BADF0"/></linearGradient></defs><g fill="none" fill-rule="evenodd"><path fill="url(#a)" d="M0 0h1280v575H0z" transform="translate(0 53)"/><g opacity=".132" transform="rotate(10 606.344 5614.082)"><circle cx="117.5" cy="491.5" r="11.5" fill="#FFF"/><circle cx="204.5" cy="312.5" r="11.5" fill="#FFF"/><circle cx="11.5" cy="154.5" r="11.5" fill="#FFF"/><circle cx="58.5" cy="386.5" r="11.5" fill="#FFF"/><circle cx="274.5" cy="109.5" r="11.5" fill="#FFF"/><circle cx="274.5" cy="578.5" r="11.5" fill="#FFF"/><path stroke="#FFF" stroke-linecap="square" stroke-width="2" d="M274.293 577.917l99.699-27.734m-98.888 26.575l5.238 29.706M14.5 159.5l40 223m-38-229l189 158m-191-158l264-44m-267 46L122.628.794M277.5 113.5l-77 193m75-195l84 288m-155-88l-147 76m150-74l-88.54 175.679M203.5 310.5l73 268m-64-268l126-13m-219 192l-61-97m63 102l150 86m-157.674-83.279L3.926 656.536"/></g></g></svg>