<svg xmlns="http://www.w3.org/2000/svg" width="295" height="710"><g fill="none" fill-rule="evenodd" opacity=".076" transform="rotate(-180 147.5 354.5)"><circle cx="117.5" cy="491.5" r="11.5" fill="#FFF"/><circle cx="204.5" cy="312.5" r="11.5" fill="#FFF"/><circle cx="11.5" cy="154.5" r="11.5" fill="#FFF"/><circle cx="58.5" cy="386.5" r="11.5" fill="#FFF"/><circle cx="15.5" cy="627.5" r="11.5" fill="#FFF"/><circle cx="274.5" cy="109.5" r="11.5" fill="#FFF"/><circle cx="274.5" cy="578.5" r="11.5" fill="#FFF"/><path stroke="#FFF" stroke-linecap="square" stroke-width="2" d="M274.293 577.917l99.699-27.734m-96.815 32.831l35.089 73.72M14.5 159.5l40 223m-38-229l189 158m-191-158l264-44m-267 46L122.628.794M277.5 113.5l-77 193m75-195l84 288m-155-88l-147 76m150-74l-88.54 175.679M203.5 310.5l73 268m-64-268l126-13m-219 192l-61-97m63 102l150 86M15.934 626.594l292.101-12.867M113.826 497.221L15.363 626.898l292.2 83.985"/></g></svg>