<svg xmlns="http://www.w3.org/2000/svg" width="384" height="712"><g fill="none" fill-rule="evenodd" opacity=".076" transform="rotate(10 372.447 749.174)"><circle cx="130.5" cy="587.5" r="11.5" fill="#FFF"/><circle cx="217.5" cy="408.5" r="11.5" fill="#FFF"/><circle cx="24.5" cy="250.5" r="11.5" fill="#FFF"/><circle cx="71.5" cy="482.5" r="11.5" fill="#FFF"/><circle cx="287.5" cy="205.5" r="11.5" fill="#FFF"/><circle cx="287.5" cy="674.5" r="11.5" fill="#FFF"/><path stroke="#FFF" stroke-linecap="square" stroke-width="2" d="M287.293 673.917l99.699-27.734m-99.815 32.831l9.843 32.79M27.5 255.5l40 223m-38-229l189 158m-191-158l264-44m-267 46L264.03.704M290.5 209.5l-77 193m75-195l84 288m-155-88l-147 76m150-74l-88.54 175.679M216.5 406.5l73 268m-64-268l126-13m-219 192l-61-97m63 102l150 86m-157.674-83.279L.524 775.131"/></g></svg>