<svg xmlns="http://www.w3.org/2000/svg" width="44" height="44"><g fill="#FFF"><path d="M24.221 14h-4.128v4.345H16v4.346h4.093V27h4.128v-4.31H28v-4.345h-3.779V14z"/><path d="M42.91 44c.601 0 1.09-.492 1.09-1.1V15.587c0-.608-.488-1.1-1.09-1.1h-6.7V6.62c0-.608-.487-1.1-1.09-1.1h-3.37V1.1A1.098 1.098 0 0 0 30.658 0h-17.24c-.602 0-1.09.493-1.09 1.1v4.42H8.954c-.602 0-1.09.492-1.09 1.1v7.866H1.091c-.602 0-1.091.493-1.091 1.1V42.9c0 .608.488 1.1 1.09 1.1h41.82zM7.864 41.8H2.181V16.687h5.684V41.8zm6.644-39.6h15.06v3.32h-15.06V2.2zm11.36 39.361h-7.66v-5.185h7.66v5.185zm8.086.238h-5.906v-6.523c0-.608-.488-1.1-1.09-1.1h-9.84c-.602 0-1.09.492-1.09 1.1V41.8h-5.982V7.72H34.03l-.076 34.08zm7.865 0h-5.608V16.687h5.608V41.8z"/></g></svg>