<svg xmlns="http://www.w3.org/2000/svg" xmlns:xlink="http://www.w3.org/1999/xlink" width="173" height="40"><defs><path id="a" d="M0 40.024h172.804V.254H0z"/></defs><g fill="none" fill-rule="evenodd"><path fill="#186DB3" d="M146.002 0c-1.287 0-1.945.653-2.002 1.875V28h14.243c-3.518-2.726-6.092-4.941-7.78-6.617a10.113 10.113 0 0 0-.543-.596c-1.83-2.101-2.774-4.544-2.774-7.355 0-2.328.658-4.401 1.888-6.247.4-.568.915-1.136 1.43-1.704 2.23-2.187 4.89-3.323 8.036-3.323 3.146.029 5.806 1.136 8.036 3.351.515.54 1.001 1.108 1.402 1.704 1.258 1.818 1.888 3.89 1.888 6.22 0 2.839-.916 5.31-2.746 7.383-.2.198-.372.397-.544.567-1.687 1.705-4.29 3.891-7.807 6.617H173V1.903c-.028-1.25-.715-1.874-2.002-1.874H158.5L146.002 0z"/><g transform="translate(0 1)"><path fill="#06925D" d="M151.677 9.146l6.487 8.058 7.52-10.56-7.52 5.906z"/><path fill="#FFF" d="M137.669 30.103c.287.466.46 1.222.46 2.24 0 1.31-.46 2.27-1.408 2.851-.947.582-2.41.873-4.42.873-1.435 0-2.583-.116-3.444-.349-.804-.262-1.378-.67-1.694-1.193-.316-.552-.46-1.309-.46-2.24 0-.756.144-1.396.489-1.862.344-.524.918-1.076 1.722-1.687.029 0 .316.029.804.058.517.029 1.12.058 1.78.087.66.058 1.233.087 1.722.087 1.205-.029 2.153.03 2.87.175.718.146 1.234.465 1.579.96zm-6.286-18.881c1.119 0 2.038.116 2.698.349.717.233 1.205.669 1.492 1.309.316.582.46 1.455.46 2.618 0 1.571-.373 2.677-1.091 3.288-.775.669-2.01.96-3.646.93-1.607 0-2.727-.32-3.387-1.018-.631-.669-.918-1.745-.918-3.2 0-1.571.373-2.676 1.12-3.345.717-.64 1.808-.931 3.272-.931zm9.96.378V9.01l-5.77.117c-.057 0-.258-.03-.631-.117a22.31 22.31 0 0 0-1.579-.261c-.632-.088-1.263-.117-1.952-.146-2.239-.029-4.018.495-5.339 1.6-1.32 1.077-2.009 2.822-2.038 5.295 0 1.862.345 3.23.947 4.16.574.932 1.292 1.571 2.153 1.92 0 .03-.143.263-.344.64-.201.408-.402.903-.603 1.397-.23.495-.345.873-.345 1.135 0 .64.058 1.193.259 1.687.172.495.46.844.804 1.106-.69.524-1.263.989-1.723 1.455-.488.494-.832.989-1.062 1.541a5.314 5.314 0 0 0-.373 2.008c0 1.6.287 2.85.804 3.753.574.902 1.492 1.57 2.755 1.92 1.263.378 2.9.553 4.966.553 2.813 0 5.024-.495 6.545-1.542 1.521-1.018 2.296-2.706 2.354-5.033 0-1.571-.259-2.793-.775-3.666-.488-.844-1.292-1.455-2.44-1.746-1.148-.349-2.64-.494-4.507-.465-1.464 0-2.526-.058-3.243-.146-.66-.116-1.12-.261-1.292-.552-.201-.262-.287-.64-.287-1.164a5.74 5.74 0 0 1 .2-.844c.087-.349.23-.698.317-1.018.143-.291.2-.437.2-.437.259.03.575.088 1.005.088.43.03.746.058.947.058 1.723 0 3.158-.174 4.306-.61 1.148-.38 1.98-1.077 2.555-2.096.574-.989.86-2.356.86-4.102 0-1.018-.114-1.862-.343-2.473-.23-.581-.546-1.076-.89-1.425h3.559z"/><path fill="#F3A536" d="M143.812 28.085c.172.844.803 1.28 1.894 1.28h12.544v.03h12.544c1.09 0 1.722-.408 1.895-1.28h-14.44v-.03h-14.437z"/><path fill="#FFF" d="M67.486 12.036c.775-.465 1.895-.698 3.301-.669 1.895-.058 3.273.524 4.105 1.716.86 1.193 1.292 3.143 1.292 5.79 0 1.775-.086 3.259-.373 4.422-.259 1.193-.775 2.095-1.58 2.677-.746.61-1.922.901-3.444.901-1.55 0-2.727-.29-3.53-.843-.776-.553-1.32-1.425-1.58-2.619-.286-1.192-.401-2.734-.372-4.625-.03-1.804.172-3.288.488-4.364.315-1.106.89-1.891 1.693-2.386m9.76-.873c-1.32-1.716-3.502-2.56-6.459-2.56-2.095 0-3.731.378-4.994 1.106-1.263.727-2.182 1.862-2.727 3.345-.574 1.513-.833 3.433-.833 5.732 0 2.473.23 4.51.718 6.08.517 1.6 1.406 2.764 2.64 3.52 1.235.786 2.957 1.164 5.196 1.164 2.21 0 3.933-.407 5.167-1.222 1.234-.814 2.096-2.007 2.584-3.578.487-1.6.717-3.55.717-5.877 0-3.433-.632-5.993-2.01-7.71m-20.667 1.92c.833 1.193 1.264 3.143 1.235 5.79.057 1.775-.058 3.258-.345 4.422-.258 1.193-.775 2.095-1.55 2.677-.775.61-1.923.902-3.473.902-1.55 0-2.727-.291-3.53-.844-.776-.553-1.321-1.426-1.58-2.618-.287-1.193-.401-2.735-.372-4.626 0-1.804.143-3.288.487-4.364.316-1.106.89-1.891 1.694-2.386.775-.465 1.894-.698 3.301-.67 1.895-.057 3.272.525 4.133 1.717m3.617 11.667c.46-1.6.718-3.55.69-5.877.056-3.433-.632-5.993-1.981-7.71-1.32-1.716-3.474-2.56-6.459-2.56-2.095 0-3.76.378-4.995 1.106-1.291.727-2.181 1.862-2.755 3.345-.546 1.513-.833 3.433-.804 5.732-.029 2.473.23 4.51.718 6.08.516 1.6 1.406 2.764 2.64 3.52 1.235.786 2.957 1.164 5.196 1.164 2.21 0 3.933-.407 5.196-1.222 1.205-.814 2.037-2.007 2.554-3.578M35.51 16.662c.86.174 1.607.61 2.267 1.31.631.668.976 1.716 1.005 3.141 0 1.92-.517 3.288-1.522 4.073-.947.757-2.267 1.164-3.932 1.135h-7.32v-9.95h7.09c.718-.058 1.55.058 2.411.291m2.44-8.204c0 1.687-.402 2.967-1.148 3.81-.746.845-2.01 1.281-3.731 1.281h-7.062V4.007h6.803c1.722 0 3.014.32 3.875 1.018.861.727 1.263 1.862 1.263 3.433m2.182 3.986c.631-1.019.947-2.502.976-4.365-.029-2.444-.747-4.218-2.153-5.294-1.435-1.106-3.445-1.659-6.028-1.63h-9.96v27.988h10.476c1.723 0 3.216-.204 4.507-.727 1.263-.495 2.21-1.339 2.9-2.473.717-1.164 1.033-2.706 1.061-4.684-.028-1.31-.2-2.415-.602-3.288a4.93 4.93 0 0 0-1.493-2.036c-.66-.495-1.407-.931-2.21-1.193a5.426 5.426 0 0 0 2.526-2.298m73.914-1.048c1.177-.03 2.095.204 2.67.698.631.495 1.004 1.251 1.234 2.328.2 1.076.287 2.531.287 4.277v10.444h2.928V18.669c.028-2.443-.144-4.393-.517-5.847-.344-1.484-1.005-2.56-1.98-3.23-1.005-.669-2.383-.989-4.163-.989a14.08 14.08 0 0 0-2.87.466 19 19 0 0 0-2.325.814c-.603.291-.919.437-.947.466V9.01h-2.986v20.132h2.986V12.88c.028-.03.315-.146.89-.407a14.88 14.88 0 0 1 2.152-.67c.861-.261 1.722-.378 2.64-.407"/><mask id="b" fill="#fff"><use xlink:href="#a"/></mask><path fill="#FFF" d="M99.492 4.472h2.956V.98h-2.956zM96.765 9.01h-3.301l-5.942 7.943-3.043.174V.253h-2.985v28.89h2.985v-9.048l3.1-.175 5.97 9.223h3.36l-6.746-10.88zm2.727 20.133h2.956V9.01h-2.956z" mask="url(#b)"/><path fill="#186DB3" d="M20.038 1.97c-.03 0-.316-.058-.862-.175a56.327 56.327 0 0 0-2.21-.378c-.918-.174-1.923-.29-3.014-.407a58.5 58.5 0 0 0-3.186-.175c-2.698 0-4.794.553-6.372 1.571C2.815 3.454 1.667 5.025 1.006 7.12.317 9.272-.027 11.95.002 15.207c-.029 3.084.287 5.674.976 7.826.603 2.153 1.722 3.753 3.358 4.888 1.579 1.076 3.79 1.658 6.602 1.658.89 0 1.837-.029 2.842-.145a80.212 80.212 0 0 0 3.014-.32c.918-.146 1.693-.233 2.296-.32.603-.088.919-.116.948-.116V14.596h-8.842v4.19h4.192v5.964s-.202 0-.632.03c-.402.057-.947.115-1.55.115-.603.058-1.263.117-1.895.117-1.78 0-3.157-.291-4.104-.96-.919-.64-1.58-1.688-1.924-3.143-.344-1.425-.516-3.345-.459-5.702-.029-2.473.172-4.393.546-5.818.401-1.426 1.062-2.444 2.038-3.055.947-.611 2.296-.931 4.047-.902.89 0 1.866.03 2.842.087.976.088 1.894.146 2.727.233.86.087 1.55.146 2.066.233.517.058.804.087.804.087l.144-4.102z" mask="url(#b)"/></g></g></svg>