<svg xmlns="http://www.w3.org/2000/svg" width="1100" height="34" viewBox="0 0 1100 34">
    <path fill="#27BBFF" fill-rule="evenodd" d="M770.876 19h91.405c1.404 7.403 7.908 13 15.719 13 7.811 0 14.315-5.597 15.72-13h91.404c.984 7.893 7.717 14 15.876 14 8.16 0 14.892-6.107 15.876-14H1100v-5h-83.28c-1.405-7.403-7.909-13-15.72-13-7.811 0-14.315 5.597-15.72 13h-91.404C892.892 6.107 886.16 0 878 0c-8.16 0-14.892 6.107-15.876 14h-91.405C769.315 6.597 762.811 1 755 1c-7.811 0-14.315 5.597-15.72 13h-91.784C645.72 7.1 639.456 2 632 2c-7.455 0-13.72 5.1-15.496 12H524.72C523.315 6.597 516.811 1 509 1c-7.811 0-14.315 5.597-15.72 13h-91.56C400.314 6.597 393.81 1 386 1c-7.811 0-14.315 5.597-15.72 13h-91.56C277.314 6.597 270.81 1 263 1c-7.811 0-14.315 5.597-15.72 13h-91.56C154.314 6.597 147.81 1 140 1c-7.811 0-14.315 5.597-15.72 13H31.72C30.314 6.597 23.81 1 16 1 8.189 1 1.685 6.597.28 14H0v5h.124C1.108 26.893 7.84 33 16 33c8.16 0 14.892-6.107 15.876-14h92.248c.984 7.893 7.717 14 15.876 14 8.16 0 14.892-6.107 15.876-14h91.248c.984 7.893 7.717 14 15.876 14 8.16 0 14.892-6.107 15.876-14h91.248c.984 7.893 7.717 14 15.876 14 8.16 0 14.892-6.107 15.876-14h91.248c.984 7.893 7.717 14 15.876 14 8.16 0 14.892-6.107 15.876-14h91.155c.516 8.37 7.468 15 15.969 15 8.5 0 15.453-6.63 15.97-15h91.154c.984 7.893 7.717 14 15.876 14 8.16 0 14.892-6.107 15.876-14z" opacity=".292"/>
</svg>
