<svg xmlns="http://www.w3.org/2000/svg" width="1280" height="629" viewBox="0 0 1280 629">
    <defs>
        <linearGradient id="a" x1="100%" x2="0%" y1="50%" y2="50%">
            <stop offset="0%" stop-color="#327CFA"/>
            <stop offset="100%" stop-color="#1BADF0"/>
        </linearGradient>
    </defs>
    <g fill="none" fill-rule="evenodd">
        <path fill="url(#a)" d="M0 0h1280v575H0z" transform="translate(0 53)"/>
        <g opacity=".132" transform="rotate(10 606.344 5614.082)">
            <circle cx="117.5" cy="491.5" r="11.5" fill="#FFF"/>
            <circle cx="204.5" cy="312.5" r="11.5" fill="#FFF"/>
            <circle cx="11.5" cy="154.5" r="11.5" fill="#FFF"/>
            <circle cx="58.5" cy="386.5" r="11.5" fill="#FFF"/>
            <circle cx="274.5" cy="109.5" r="11.5" fill="#FFF"/>
            <circle cx="274.5" cy="578.5" r="11.5" fill="#FFF"/>
            <path stroke="#FFF" stroke-linecap="square" stroke-width="2" d="M274.293 577.917l99.699-27.734M275.104 576.758l5.238 29.706M14.5 159.5l40 223M16.5 153.5l189 158M14.5 153.5l264-44M11.5 155.5L122.628.794M277.5 113.5l-77 193M275.5 111.5l84 288M204.5 311.5l-147 76M207.5 313.5l-88.54 175.679M203.5 310.5l73 268M212.5 310.5l126-13M119.5 489.5l-61-97M121.5 494.5l150 86M113.826 497.221L3.926 656.536"/>
        </g>
    </g>
</svg>
