<svg xmlns="http://www.w3.org/2000/svg" width="479" height="346" viewBox="0 0 479 346">
    <g fill="none" fill-rule="evenodd">
        <g fill="#16A0FF" fill-rule="nonzero" transform="translate(337 2)">
            <path d="M44.727 0H3.273C1.468 0 0 1.452 0 3.237v34.526C0 39.548 1.468 41 3.273 41h41.454C46.532 41 48 39.548 48 37.763V3.237C48 1.452 46.532 0 44.727 0zm1.091 37.763c0 .596-.489 1.08-1.09 1.08H3.272c-.602 0-1.091-.484-1.091-1.08V8.632h43.636v29.131zm0-31.29H2.182V3.238c0-.596.489-1.08 1.09-1.08h41.455c.602 0 1.091.484 1.091 1.08v3.237z"/>
            <ellipse cx="5.455" cy="4.316" rx="1.091" ry="1.079"/>
            <ellipse cx="9.818" cy="4.316" rx="1.091" ry="1.079"/>
            <ellipse cx="14.182" cy="4.316" rx="1.091" ry="1.079"/>
            <path d="M8.727 21.579h6.546c.603 0 1.09-.482 1.09-1.079v-6.474c0-.596-.487-1.079-1.09-1.079H8.727c-.603 0-1.09.483-1.09 1.08V20.5c0 .597.487 1.079 1.09 1.079zm1.091-6.474h4.364v4.316H9.818v-4.316zM19.636 15.105h12c.604 0 1.091-.482 1.091-1.079 0-.596-.487-1.079-1.09-1.079h-12c-.604 0-1.092.483-1.092 1.08 0 .596.488 1.078 1.091 1.078zM19.636 18.342h8.728c.603 0 1.09-.482 1.09-1.079s-.487-1.079-1.09-1.079h-8.728c-.603 0-1.09.482-1.09 1.08 0 .596.487 1.078 1.09 1.078zM34.91 15.105h4.363c.603 0 1.09-.482 1.09-1.079 0-.596-.487-1.079-1.09-1.079h-4.364c-.603 0-1.09.483-1.09 1.08 0 .596.487 1.078 1.09 1.078zM19.636 21.579h6.546c.603 0 1.09-.482 1.09-1.079s-.487-1.079-1.09-1.079h-6.546c-.603 0-1.09.482-1.09 1.079s.487 1.079 1.09 1.079zM8.727 34.526h6.546c.603 0 1.09-.482 1.09-1.079v-6.473c0-.597-.487-1.08-1.09-1.08H8.727c-.603 0-1.09.483-1.09 1.08v6.473c0 .597.487 1.08 1.09 1.08zm1.091-6.473h4.364v4.315H9.818v-4.315zM36 17.263c0-.597-.488-1.079-1.09-1.079h-3.274c-.603 0-1.09.482-1.09 1.08 0 .596.487 1.078 1.09 1.078h3.273c.603 0 1.091-.482 1.091-1.079zM19.636 28.053h12c.604 0 1.091-.483 1.091-1.08 0-.596-.487-1.078-1.09-1.078h-12c-.604 0-1.092.482-1.092 1.079 0 .596.488 1.079 1.091 1.079zM19.636 31.29h8.728c.603 0 1.09-.483 1.09-1.08 0-.596-.487-1.078-1.09-1.078h-8.728c-.603 0-1.09.482-1.09 1.079 0 .596.487 1.078 1.09 1.078zM39.273 25.895h-4.364c-.603 0-1.09.482-1.09 1.079 0 .596.487 1.079 1.09 1.079h4.364c.603 0 1.09-.483 1.09-1.08 0-.596-.487-1.078-1.09-1.078zM34.91 29.132h-3.274c-.603 0-1.09.482-1.09 1.079 0 .596.487 1.078 1.09 1.078h3.273c.603 0 1.091-.482 1.091-1.078 0-.597-.488-1.08-1.09-1.08zM19.636 34.526h6.546c.603 0 1.09-.482 1.09-1.079 0-.596-.487-1.079-1.09-1.079h-6.546c-.603 0-1.09.483-1.09 1.08 0 .596.487 1.078 1.09 1.078z"/>
        </g>
        <g fill="#16A0FF" fill-rule="nonzero" transform="translate(337 77)">
            <path d="M44.727 0H3.273C1.468 0 0 1.452 0 3.237v34.526C0 39.548 1.468 41 3.273 41h41.454C46.532 41 48 39.548 48 37.763V3.237C48 1.452 46.532 0 44.727 0zm1.091 37.763c0 .596-.489 1.08-1.09 1.08H3.272c-.602 0-1.091-.484-1.091-1.08V8.632h43.636v29.131zm0-31.29H2.182V3.238c0-.596.489-1.08 1.09-1.08h41.455c.602 0 1.091.484 1.091 1.08v3.237z"/>
            <ellipse cx="5.455" cy="4.316" rx="1.091" ry="1.079"/>
            <ellipse cx="9.818" cy="4.316" rx="1.091" ry="1.079"/>
            <ellipse cx="14.182" cy="4.316" rx="1.091" ry="1.079"/>
            <path d="M8.727 21.579h6.546c.603 0 1.09-.482 1.09-1.079v-6.474c0-.596-.487-1.079-1.09-1.079H8.727c-.603 0-1.09.483-1.09 1.08V20.5c0 .597.487 1.079 1.09 1.079zm1.091-6.474h4.364v4.316H9.818v-4.316zM19.636 15.105h12c.604 0 1.091-.482 1.091-1.079 0-.596-.487-1.079-1.09-1.079h-12c-.604 0-1.092.483-1.092 1.08 0 .596.488 1.078 1.091 1.078zM19.636 18.342h8.728c.603 0 1.09-.482 1.09-1.079s-.487-1.079-1.09-1.079h-8.728c-.603 0-1.09.482-1.09 1.08 0 .596.487 1.078 1.09 1.078zM34.91 15.105h4.363c.603 0 1.09-.482 1.09-1.079 0-.596-.487-1.079-1.09-1.079h-4.364c-.603 0-1.09.483-1.09 1.08 0 .596.487 1.078 1.09 1.078zM19.636 21.579h6.546c.603 0 1.09-.482 1.09-1.079s-.487-1.079-1.09-1.079h-6.546c-.603 0-1.09.482-1.09 1.079s.487 1.079 1.09 1.079zM8.727 34.526h6.546c.603 0 1.09-.482 1.09-1.079v-6.473c0-.597-.487-1.08-1.09-1.08H8.727c-.603 0-1.09.483-1.09 1.08v6.473c0 .597.487 1.08 1.09 1.08zm1.091-6.473h4.364v4.315H9.818v-4.315zM36 17.263c0-.597-.488-1.079-1.09-1.079h-3.274c-.603 0-1.09.482-1.09 1.08 0 .596.487 1.078 1.09 1.078h3.273c.603 0 1.091-.482 1.091-1.079zM19.636 28.053h12c.604 0 1.091-.483 1.091-1.08 0-.596-.487-1.078-1.09-1.078h-12c-.604 0-1.092.482-1.092 1.079 0 .596.488 1.079 1.091 1.079zM19.636 31.29h8.728c.603 0 1.09-.483 1.09-1.08 0-.596-.487-1.078-1.09-1.078h-8.728c-.603 0-1.09.482-1.09 1.079 0 .596.487 1.078 1.09 1.078zM39.273 25.895h-4.364c-.603 0-1.09.482-1.09 1.079 0 .596.487 1.079 1.09 1.079h4.364c.603 0 1.09-.483 1.09-1.08 0-.596-.487-1.078-1.09-1.078zM34.91 29.132h-3.274c-.603 0-1.09.482-1.09 1.079 0 .596.487 1.078 1.09 1.078h3.273c.603 0 1.091-.482 1.091-1.078 0-.597-.488-1.08-1.09-1.08zM19.636 34.526h6.546c.603 0 1.09-.482 1.09-1.079 0-.596-.487-1.079-1.09-1.079h-6.546c-.603 0-1.09.483-1.09 1.08 0 .596.487 1.078 1.09 1.078z"/>
        </g>
        <g fill="#16A0FF" fill-rule="nonzero" transform="translate(337 152)">
            <path d="M44.727 0H3.273C1.468 0 0 1.452 0 3.237v34.526C0 39.548 1.468 41 3.273 41h41.454C46.532 41 48 39.548 48 37.763V3.237C48 1.452 46.532 0 44.727 0zm1.091 37.763c0 .596-.489 1.08-1.09 1.08H3.272c-.602 0-1.091-.484-1.091-1.08V8.632h43.636v29.131zm0-31.29H2.182V3.238c0-.596.489-1.08 1.09-1.08h41.455c.602 0 1.091.484 1.091 1.08v3.237z"/>
            <ellipse cx="5.455" cy="4.316" rx="1.091" ry="1.079"/>
            <ellipse cx="9.818" cy="4.316" rx="1.091" ry="1.079"/>
            <ellipse cx="14.182" cy="4.316" rx="1.091" ry="1.079"/>
            <path d="M8.727 21.579h6.546c.603 0 1.09-.482 1.09-1.079v-6.474c0-.596-.487-1.079-1.09-1.079H8.727c-.603 0-1.09.483-1.09 1.08V20.5c0 .597.487 1.079 1.09 1.079zm1.091-6.474h4.364v4.316H9.818v-4.316zM19.636 15.105h12c.604 0 1.091-.482 1.091-1.079 0-.596-.487-1.079-1.09-1.079h-12c-.604 0-1.092.483-1.092 1.08 0 .596.488 1.078 1.091 1.078zM19.636 18.342h8.728c.603 0 1.09-.482 1.09-1.079s-.487-1.079-1.09-1.079h-8.728c-.603 0-1.09.482-1.09 1.08 0 .596.487 1.078 1.09 1.078zM34.91 15.105h4.363c.603 0 1.09-.482 1.09-1.079 0-.596-.487-1.079-1.09-1.079h-4.364c-.603 0-1.09.483-1.09 1.08 0 .596.487 1.078 1.09 1.078zM19.636 21.579h6.546c.603 0 1.09-.482 1.09-1.079s-.487-1.079-1.09-1.079h-6.546c-.603 0-1.09.482-1.09 1.079s.487 1.079 1.09 1.079zM8.727 34.526h6.546c.603 0 1.09-.482 1.09-1.079v-6.473c0-.597-.487-1.08-1.09-1.08H8.727c-.603 0-1.09.483-1.09 1.08v6.473c0 .597.487 1.08 1.09 1.08zm1.091-6.473h4.364v4.315H9.818v-4.315zM36 17.263c0-.597-.488-1.079-1.09-1.079h-3.274c-.603 0-1.09.482-1.09 1.08 0 .596.487 1.078 1.09 1.078h3.273c.603 0 1.091-.482 1.091-1.079zM19.636 28.053h12c.604 0 1.091-.483 1.091-1.08 0-.596-.487-1.078-1.09-1.078h-12c-.604 0-1.092.482-1.092 1.079 0 .596.488 1.079 1.091 1.079zM19.636 31.29h8.728c.603 0 1.09-.483 1.09-1.08 0-.596-.487-1.078-1.09-1.078h-8.728c-.603 0-1.09.482-1.09 1.079 0 .596.487 1.078 1.09 1.078zM39.273 25.895h-4.364c-.603 0-1.09.482-1.09 1.079 0 .596.487 1.079 1.09 1.079h4.364c.603 0 1.09-.483 1.09-1.08 0-.596-.487-1.078-1.09-1.078zM34.91 29.132h-3.274c-.603 0-1.09.482-1.09 1.079 0 .596.487 1.078 1.09 1.078h3.273c.603 0 1.091-.482 1.091-1.078 0-.597-.488-1.08-1.09-1.08zM19.636 34.526h6.546c.603 0 1.09-.482 1.09-1.079 0-.596-.487-1.079-1.09-1.079h-6.546c-.603 0-1.09.483-1.09 1.08 0 .596.487 1.078 1.09 1.078z"/>
        </g>
        <g fill="#16A0FF" fill-rule="nonzero" transform="translate(337 227)">
            <path d="M44.727 0H3.273C1.468 0 0 1.452 0 3.237v34.526C0 39.548 1.468 41 3.273 41h41.454C46.532 41 48 39.548 48 37.763V3.237C48 1.452 46.532 0 44.727 0zm1.091 37.763c0 .596-.489 1.08-1.09 1.08H3.272c-.602 0-1.091-.484-1.091-1.08V8.632h43.636v29.131zm0-31.29H2.182V3.238c0-.596.489-1.08 1.09-1.08h41.455c.602 0 1.091.484 1.091 1.08v3.237z"/>
            <ellipse cx="5.455" cy="4.316" rx="1.091" ry="1.079"/>
            <ellipse cx="9.818" cy="4.316" rx="1.091" ry="1.079"/>
            <ellipse cx="14.182" cy="4.316" rx="1.091" ry="1.079"/>
            <path d="M8.727 21.579h6.546c.603 0 1.09-.482 1.09-1.079v-6.474c0-.596-.487-1.079-1.09-1.079H8.727c-.603 0-1.09.483-1.09 1.08V20.5c0 .597.487 1.079 1.09 1.079zm1.091-6.474h4.364v4.316H9.818v-4.316zM19.636 15.105h12c.604 0 1.091-.482 1.091-1.079 0-.596-.487-1.079-1.09-1.079h-12c-.604 0-1.092.483-1.092 1.08 0 .596.488 1.078 1.091 1.078zM19.636 18.342h8.728c.603 0 1.09-.482 1.09-1.079s-.487-1.079-1.09-1.079h-8.728c-.603 0-1.09.482-1.09 1.08 0 .596.487 1.078 1.09 1.078zM34.91 15.105h4.363c.603 0 1.09-.482 1.09-1.079 0-.596-.487-1.079-1.09-1.079h-4.364c-.603 0-1.09.483-1.09 1.08 0 .596.487 1.078 1.09 1.078zM19.636 21.579h6.546c.603 0 1.09-.482 1.09-1.079s-.487-1.079-1.09-1.079h-6.546c-.603 0-1.09.482-1.09 1.079s.487 1.079 1.09 1.079zM8.727 34.526h6.546c.603 0 1.09-.482 1.09-1.079v-6.473c0-.597-.487-1.08-1.09-1.08H8.727c-.603 0-1.09.483-1.09 1.08v6.473c0 .597.487 1.08 1.09 1.08zm1.091-6.473h4.364v4.315H9.818v-4.315zM36 17.263c0-.597-.488-1.079-1.09-1.079h-3.274c-.603 0-1.09.482-1.09 1.08 0 .596.487 1.078 1.09 1.078h3.273c.603 0 1.091-.482 1.091-1.079zM19.636 28.053h12c.604 0 1.091-.483 1.091-1.08 0-.596-.487-1.078-1.09-1.078h-12c-.604 0-1.092.482-1.092 1.079 0 .596.488 1.079 1.091 1.079zM19.636 31.29h8.728c.603 0 1.09-.483 1.09-1.08 0-.596-.487-1.078-1.09-1.078h-8.728c-.603 0-1.09.482-1.09 1.079 0 .596.487 1.078 1.09 1.078zM39.273 25.895h-4.364c-.603 0-1.09.482-1.09 1.079 0 .596.487 1.079 1.09 1.079h4.364c.603 0 1.09-.483 1.09-1.08 0-.596-.487-1.078-1.09-1.078zM34.91 29.132h-3.274c-.603 0-1.09.482-1.09 1.079 0 .596.487 1.078 1.09 1.078h3.273c.603 0 1.091-.482 1.091-1.078 0-.597-.488-1.08-1.09-1.08zM19.636 34.526h6.546c.603 0 1.09-.482 1.09-1.079 0-.596-.487-1.079-1.09-1.079h-6.546c-.603 0-1.09.483-1.09 1.08 0 .596.487 1.078 1.09 1.078z"/>
        </g>
        <g fill="#16A0FF" fill-rule="nonzero" transform="translate(337 300)">
            <path d="M44.727 0H3.273C1.468 0 0 1.452 0 3.237v34.526C0 39.548 1.468 41 3.273 41h41.454C46.532 41 48 39.548 48 37.763V3.237C48 1.452 46.532 0 44.727 0zm1.091 37.763c0 .596-.489 1.08-1.09 1.08H3.272c-.602 0-1.091-.484-1.091-1.08V8.632h43.636v29.131zm0-31.29H2.182V3.238c0-.596.489-1.08 1.09-1.08h41.455c.602 0 1.091.484 1.091 1.08v3.237z"/>
            <ellipse cx="5.455" cy="4.316" rx="1.091" ry="1.079"/>
            <ellipse cx="9.818" cy="4.316" rx="1.091" ry="1.079"/>
            <ellipse cx="14.182" cy="4.316" rx="1.091" ry="1.079"/>
            <path d="M8.727 21.579h6.546c.603 0 1.09-.482 1.09-1.079v-6.474c0-.596-.487-1.079-1.09-1.079H8.727c-.603 0-1.09.483-1.09 1.08V20.5c0 .597.487 1.079 1.09 1.079zm1.091-6.474h4.364v4.316H9.818v-4.316zM19.636 15.105h12c.604 0 1.091-.482 1.091-1.079 0-.596-.487-1.079-1.09-1.079h-12c-.604 0-1.092.483-1.092 1.08 0 .596.488 1.078 1.091 1.078zM19.636 18.342h8.728c.603 0 1.09-.482 1.09-1.079s-.487-1.079-1.09-1.079h-8.728c-.603 0-1.09.482-1.09 1.08 0 .596.487 1.078 1.09 1.078zM34.91 15.105h4.363c.603 0 1.09-.482 1.09-1.079 0-.596-.487-1.079-1.09-1.079h-4.364c-.603 0-1.09.483-1.09 1.08 0 .596.487 1.078 1.09 1.078zM19.636 21.579h6.546c.603 0 1.09-.482 1.09-1.079s-.487-1.079-1.09-1.079h-6.546c-.603 0-1.09.482-1.09 1.079s.487 1.079 1.09 1.079zM8.727 34.526h6.546c.603 0 1.09-.482 1.09-1.079v-6.473c0-.597-.487-1.08-1.09-1.08H8.727c-.603 0-1.09.483-1.09 1.08v6.473c0 .597.487 1.08 1.09 1.08zm1.091-6.473h4.364v4.315H9.818v-4.315zM36 17.263c0-.597-.488-1.079-1.09-1.079h-3.274c-.603 0-1.09.482-1.09 1.08 0 .596.487 1.078 1.09 1.078h3.273c.603 0 1.091-.482 1.091-1.079zM19.636 28.053h12c.604 0 1.091-.483 1.091-1.08 0-.596-.487-1.078-1.09-1.078h-12c-.604 0-1.092.482-1.092 1.079 0 .596.488 1.079 1.091 1.079zM19.636 31.29h8.728c.603 0 1.09-.483 1.09-1.08 0-.596-.487-1.078-1.09-1.078h-8.728c-.603 0-1.09.482-1.09 1.079 0 .596.487 1.078 1.09 1.078zM39.273 25.895h-4.364c-.603 0-1.09.482-1.09 1.079 0 .596.487 1.079 1.09 1.079h4.364c.603 0 1.09-.483 1.09-1.08 0-.596-.487-1.078-1.09-1.078zM34.91 29.132h-3.274c-.603 0-1.09.482-1.09 1.079 0 .596.487 1.078 1.09 1.078h3.273c.603 0 1.091-.482 1.091-1.078 0-.597-.488-1.08-1.09-1.08zM19.636 34.526h6.546c.603 0 1.09-.482 1.09-1.079 0-.596-.487-1.079-1.09-1.079h-6.546c-.603 0-1.09.483-1.09 1.08 0 .596.487 1.078 1.09 1.078z"/>
        </g>
        <g fill="#16A0FF" fill-rule="nonzero" transform="translate(98)">
            <path d="M0 0v13.907h46V0H0zm44 11.92H2V1.987h42v9.933z"/>
            <circle cx="5.616" cy="6.686" r="1.872"/>
            <circle cx="12.035" cy="6.686" r="1.872"/>
            <path d="M0 29.953h46V16.047H0v13.906zm2-11.92h42v9.934H2v-9.934z"/>
            <circle cx="5.616" cy="22.733" r="1.872"/>
            <circle cx="12.035" cy="22.733" r="1.872"/>
            <path d="M0 46h46V32.093H0V46zm2-11.92h42v9.933H2V34.08z"/>
            <circle cx="5.616" cy="38.779" r="1.872"/>
            <circle cx="12.035" cy="38.779" r="1.872"/>
        </g>
        <g fill="#16A0FF" fill-rule="nonzero" transform="translate(98 75)">
            <path d="M0 0v13.907h46V0H0zm44 11.92H2V1.987h42v9.933z"/>
            <circle cx="5.616" cy="6.686" r="1.872"/>
            <circle cx="12.035" cy="6.686" r="1.872"/>
            <path d="M0 29.953h46V16.047H0v13.906zm2-11.92h42v9.934H2v-9.934z"/>
            <circle cx="5.616" cy="22.733" r="1.872"/>
            <circle cx="12.035" cy="22.733" r="1.872"/>
            <path d="M0 46h46V32.093H0V46zm2-11.92h42v9.933H2V34.08z"/>
            <circle cx="5.616" cy="38.779" r="1.872"/>
            <circle cx="12.035" cy="38.779" r="1.872"/>
        </g>
        <g fill="#16A0FF" fill-rule="nonzero" transform="translate(98 150)">
            <path d="M0 0v13.907h46V0H0zm44 11.92H2V1.987h42v9.933z"/>
            <circle cx="5.616" cy="6.686" r="1.872"/>
            <circle cx="12.035" cy="6.686" r="1.872"/>
            <path d="M0 29.953h46V16.047H0v13.906zm2-11.92h42v9.934H2v-9.934z"/>
            <circle cx="5.616" cy="22.733" r="1.872"/>
            <circle cx="12.035" cy="22.733" r="1.872"/>
            <path d="M0 46h46V32.093H0V46zm2-11.92h42v9.933H2V34.08z"/>
            <circle cx="5.616" cy="38.779" r="1.872"/>
            <circle cx="12.035" cy="38.779" r="1.872"/>
        </g>
        <g fill="#16A0FF" fill-rule="nonzero" transform="translate(98 225)">
            <path d="M0 0v13.907h46V0H0zm44 11.92H2V1.987h42v9.933z"/>
            <circle cx="5.616" cy="6.686" r="1.872"/>
            <circle cx="12.035" cy="6.686" r="1.872"/>
            <path d="M0 29.953h46V16.047H0v13.906zm2-11.92h42v9.934H2v-9.934z"/>
            <circle cx="5.616" cy="22.733" r="1.872"/>
            <circle cx="12.035" cy="22.733" r="1.872"/>
            <path d="M0 46h46V32.093H0V46zm2-11.92h42v9.933H2V34.08z"/>
            <circle cx="5.616" cy="38.779" r="1.872"/>
            <circle cx="12.035" cy="38.779" r="1.872"/>
        </g>
        <g fill="#16A0FF" fill-rule="nonzero" transform="translate(98 300)">
            <path d="M0 0v13.907h46V0H0zm44 11.92H2V1.987h42v9.933z"/>
            <circle cx="5.616" cy="6.686" r="1.872"/>
            <circle cx="12.035" cy="6.686" r="1.872"/>
            <path d="M0 29.953h46V16.047H0v13.906zm2-11.92h42v9.934H2v-9.934z"/>
            <circle cx="5.616" cy="22.733" r="1.872"/>
            <circle cx="12.035" cy="22.733" r="1.872"/>
            <path d="M0 46h46V32.093H0V46zm2-11.92h42v9.933H2V34.08z"/>
            <circle cx="5.616" cy="38.779" r="1.872"/>
            <circle cx="12.035" cy="38.779" r="1.872"/>
        </g>
        <path stroke="#A6A6A6" stroke-linecap="square" stroke-width="2" d="M161 22h162.724M161 23l162.653 70.94M162.448 23.447l161.104 151.106M162 23l160.8 222.815M161 22l161.883 299.075M162.445 94.556l161.11-71.112M165.447 94.444l159.106 79.112M162.447 95.447l160.106 152.106M162 95l162.14 226.65M161 173.538L323.45 22M162 174.321L323.598 95M162.447 175.444l159.106 71.112M161 175l162.017 146.84M160 246.92L323.997 22M162.445 246.555l162.11-153.11M162.445 247.554l162.11-74.108M161.445 248.446l161.11 73.108M162.448 321.554L323.552 22.446M162 321.717L324.28 94M162.447 322.553l160.106-150.106M163 321.411L322.911 247M161 95h162.724M161 173h162.724M161 247h162.724M161 322h162.724"/>
        <path fill="#16A0FF" d="M467.43 170.75c-4.65 0-8.42-3.638-8.42-8.125s3.77-8.125 8.42-8.125 8.42 3.638 8.42 8.125-3.77 8.125-8.42 8.125zm0-13c-2.79 0-5.052 2.183-5.052 4.875s2.262 4.875 5.052 4.875c2.79 0 5.053-2.183 5.053-4.875s-2.262-4.875-5.053-4.875zM453.1 179.395c-1.689-3.419-5.324-5.54-9.246-5.395-7.595 0-10.643 5.936-11.502 13H429c1.095-8.816 5.406-16.25 14.853-16.25 4.622-.15 8.967 2.118 11.368 5.931a11.633 11.633 0 0 0-2.122 2.714zm-9.246-11.895c-5.58 0-10.104-4.365-10.104-9.75s4.524-9.75 10.104-9.75c5.581 0 10.105 4.365 10.105 9.75s-4.524 9.75-10.105 9.75zm0-16.25c-3.72 0-6.736 2.91-6.736 6.5s3.016 6.5 6.736 6.5c3.72 0 6.737-2.91 6.737-6.5s-3.016-6.5-6.737-6.5zM467.43 174c7.41 0 10.745 5.96 11.57 13h-3.334c-.607-5.3-2.796-9.75-8.236-9.75-5.44 0-7.628 4.454-8.235 9.75h-3.334c.825-7.038 4.16-13 11.57-13z"/>
        <path stroke="#A6A6A6" stroke-linecap="square" stroke-width="2" d="M61 173.357L85.71 28M60 173.381L89.788 104M61.443 173h30.114M61.441 174.446l29.118 74.108M60.446 173.447l32.108 152.106"/>
        <g stroke="#A6A6A6" stroke-linecap="square" stroke-width="2">
            <path d="M422.182 173.552L396.69 27.446M422.075 174.19l-29.845-70.906M421.662 172h-30.324M421.662 173.77l-29.432 74.053M422.554 172.877l-32.108 151.677"/>
        </g>
        <g fill="#16A0FF" fill-rule="nonzero">
            <path d="M29.382 157.111H24.12v4.754H18.9v4.754h5.219v4.714h5.263v-4.714H34.2v-4.754h-4.818v-4.754z"/>
            <path d="M52.661 190c.74 0 1.339-.537 1.339-1.2v-29.796c0-.663-.599-1.2-1.339-1.2h-8.22v-8.582c0-.663-.6-1.2-1.338-1.2h-4.139V143.2c0-.663-.599-1.201-1.338-1.201h-21.16c-.738 0-1.337.537-1.337 1.2v4.821H10.99c-.74 0-1.338.538-1.338 1.2v8.582H1.339c-.74 0-1.339.537-1.339 1.2V188.8c0 .663.599 1.2 1.339 1.2L52.66 190zm-43.008-2.4H2.676v-27.396h6.977V187.6zm8.152-43.199h18.483v3.62H17.805v-3.62zm13.942 42.94h-9.4v-5.657h9.4v5.657zm9.924.259h-7.248v-7.116c0-.663-.6-1.2-1.338-1.2H21.009c-.74 0-1.338.537-1.338 1.2v7.116h-7.342v-37.177h29.435l-.093 37.177zm9.653 0H44.44v-27.396h6.883V187.6z"/>
        </g>
    </g>
</svg>
