<svg xmlns="http://www.w3.org/2000/svg" width="50" height="59" viewBox="0 0 50 59">
    <g fill="#2E83F8" fill-rule="evenodd">
        <path d="M49.023 5.318l-11.68 4.704a1 1 0 0 1-1.37-.84l-.64-7.308A1 1 0 0 1 36.536.808l12.32 2.604a1 1 0 0 1 .167 1.906zM3.286 57.745l-3.294-12.35a1 1 0 0 1 1-1.258l7.443.26a1 1 0 0 1 .911 1.324L5.198 57.81a1 1 0 0 1-1.912-.066z"/>
        <path d="M41.88 4.154l-2.519 2.52c-12.15-.177-21.245 3.49-27.287 11-6.041 7.511-8.111 17.48-6.21 29.904l-2.38 2.382c-1.832-15.121.364-26.551 6.588-34.29C16.297 7.934 26.9 4.095 41.881 4.155z"/>
    </g>
</svg>
