<svg xmlns="http://www.w3.org/2000/svg" width="48" height="41" viewBox="0 0 48 41">
    <g fill="#16A0FF" fill-rule="nonzero">
        <path d="M44.727 0H3.273C1.468 0 0 1.452 0 3.237v34.526C0 39.548 1.468 41 3.273 41h41.454C46.532 41 48 39.548 48 37.763V3.237C48 1.452 46.532 0 44.727 0zm1.091 37.763c0 .596-.489 1.08-1.09 1.08H3.272c-.602 0-1.091-.484-1.091-1.08V8.632h43.636v29.131zm0-31.29H2.182V3.238c0-.596.489-1.08 1.09-1.08h41.455c.602 0 1.091.484 1.091 1.08v3.237z"/>
        <ellipse cx="5.455" cy="4.316" rx="1.091" ry="1.079"/>
        <ellipse cx="9.818" cy="4.316" rx="1.091" ry="1.079"/>
        <ellipse cx="14.182" cy="4.316" rx="1.091" ry="1.079"/>
        <path d="M8.727 21.579h6.546c.603 0 1.09-.482 1.09-1.079v-6.474c0-.596-.487-1.079-1.09-1.079H8.727c-.603 0-1.09.483-1.09 1.08V20.5c0 .597.487 1.079 1.09 1.079zm1.091-6.474h4.364v4.316H9.818v-4.316zM19.636 15.105h12c.604 0 1.091-.482 1.091-1.079 0-.596-.487-1.079-1.09-1.079h-12c-.604 0-1.092.483-1.092 1.08 0 .596.488 1.078 1.091 1.078zM19.636 18.342h8.728c.603 0 1.09-.482 1.09-1.079s-.487-1.079-1.09-1.079h-8.728c-.603 0-1.09.482-1.09 1.08 0 .596.487 1.078 1.09 1.078zM34.91 15.105h4.363c.603 0 1.09-.482 1.09-1.079 0-.596-.487-1.079-1.09-1.079h-4.364c-.603 0-1.09.483-1.09 1.08 0 .596.487 1.078 1.09 1.078zM19.636 21.579h6.546c.603 0 1.09-.482 1.09-1.079s-.487-1.079-1.09-1.079h-6.546c-.603 0-1.09.482-1.09 1.079s.487 1.079 1.09 1.079zM8.727 34.526h6.546c.603 0 1.09-.482 1.09-1.079v-6.473c0-.597-.487-1.08-1.09-1.08H8.727c-.603 0-1.09.483-1.09 1.08v6.473c0 .597.487 1.08 1.09 1.08zm1.091-6.473h4.364v4.315H9.818v-4.315zM36 17.263c0-.597-.488-1.079-1.09-1.079h-3.274c-.603 0-1.09.482-1.09 1.08 0 .596.487 1.078 1.09 1.078h3.273c.603 0 1.091-.482 1.091-1.079zM19.636 28.053h12c.604 0 1.091-.483 1.091-1.08 0-.596-.487-1.078-1.09-1.078h-12c-.604 0-1.092.482-1.092 1.079 0 .596.488 1.079 1.091 1.079zM19.636 31.29h8.728c.603 0 1.09-.483 1.09-1.08 0-.596-.487-1.078-1.09-1.078h-8.728c-.603 0-1.09.482-1.09 1.079 0 .596.487 1.078 1.09 1.078zM39.273 25.895h-4.364c-.603 0-1.09.482-1.09 1.079 0 .596.487 1.079 1.09 1.079h4.364c.603 0 1.09-.483 1.09-1.08 0-.596-.487-1.078-1.09-1.078zM34.91 29.132h-3.274c-.603 0-1.09.482-1.09 1.079 0 .596.487 1.078 1.09 1.078h3.273c.603 0 1.091-.482 1.091-1.078 0-.597-.488-1.08-1.09-1.08zM19.636 34.526h6.546c.603 0 1.09-.482 1.09-1.079 0-.596-.487-1.079-1.09-1.079h-6.546c-.603 0-1.09.483-1.09 1.08 0 .596.487 1.078 1.09 1.078z"/>
    </g>
</svg>
