<svg xmlns="http://www.w3.org/2000/svg" width="65" height="46" viewBox="0 0 65 46">
    <g fill="none" fill-rule="evenodd">
        <path fill="#FFF" d="M0 46h65V0H0z"/>
        <g fill="#5B6163">
            <path d="M11.602 33.051c-.11-.404-.332-1.188-1.495-1.188-.676 0-1.698.48-1.698 2.372 0 1.2.511 2.314 1.698 2.314.78 0 1.328-.47 1.495-1.291h1.404c-.28 1.46-1.236 2.475-2.924 2.475-1.792 0-3.073-1.212-3.073-3.517 0-2.346 1.357-3.535 3.09-3.535 2.015 0 2.83 1.384 2.907 2.37h-1.404zM14.723 34.475l1.65-1.883h1.605l-1.753 1.918 1.8 3.047h-1.568l-1.19-2.132-.544.563v1.57h-1.31v-4.966h1.31z"/>
            <path d="M19.066 35.064c0 .638.195 1.522 1.206 1.522 1.013 0 1.197-.876 1.197-1.51 0-.638-.184-1.514-1.197-1.514-1.01 0-1.206.865-1.206 1.502m3.751 0c0 1.791-1.207 2.624-2.545 2.624-1.335 0-2.552-.82-2.552-2.611 0-1.793 1.217-2.615 2.552-2.615 1.338 0 2.545.812 2.545 2.602M27.737 32.59v4.968h-1.31v-3.922h-1.4v1.53c0 1.902-.576 2.5-1.496 2.5-.23 0-.603-.036-.796-.108v-.972c.026.02.193.037.387.037.394 0 .597-.192.597-1.706v-2.326h4.018zM29.715 34.475l1.65-1.883h1.605l-1.755 1.918 1.803 3.047h-1.57l-1.188-2.132-.545.563v1.57h-1.31v-4.966h1.31z"/>
            <path d="M34.06 35.064c0 .638.194 1.522 1.206 1.522 1.008 0 1.2-.876 1.2-1.51 0-.638-.192-1.514-1.2-1.514-1.012 0-1.205.865-1.205 1.502m3.747 0c0 1.791-1.206 2.624-2.542 2.624-1.337 0-2.551-.82-2.551-2.611 0-1.793 1.214-2.615 2.551-2.615 1.336 0 2.542.812 2.542 2.602M39.54 36.663h.963c.483 0 .783-.148.783-.639 0-.433-.316-.633-.799-.633h-.948v1.272zm0-2.061h.852c.436 0 .743-.173.743-.562 0-.405-.297-.554-.732-.554h-.864v1.116zm-1.308-2.011h2.255c1.115 0 1.93.454 1.93 1.283 0 .572-.408.94-.928 1.07.511.122 1.078.447 1.078 1.258 0 .92-.7 1.356-1.832 1.356h-2.503v-4.967zM44.058 35.064c0 .638.196 1.522 1.207 1.522 1.011 0 1.195-.876 1.195-1.51 0-.638-.184-1.514-1.195-1.514-1.01 0-1.207.865-1.207 1.502m3.749 0c0 1.791-1.203 2.624-2.542 2.624-1.335 0-2.553-.82-2.553-2.611 0-1.793 1.218-2.615 2.553-2.615 1.34 0 2.542.812 2.542 2.602M19.35 16.9l-5.202-1.26c-.884-.204-2.265-.555-2.265-2.22 0-1.9 2.028-2.545 3.734-2.545 3.88 0 4.235 2.254 4.35 3.217h2.476v3.957c-.91-.527-1.982-.871-3.093-1.148m-2.824 12.657c1.117 0 3.863-.194 5.917-1.684v1.13h4.142l.005-4.972 1.729-1.782 3.766 6.755h4.97l-5.705-9.65 5.557-6.083h-5.088l-5.229 5.967V7.777h-4.147v1.814c-1.264-1.35-3.31-2.369-6.501-2.369-6.91 0-8.207 4.18-8.207 6.52 0 3.214 1.74 5.002 4.765 5.731l4.293 1.051c2.264.557 3.883.965 3.883 2.632 0 2.222-2.354 2.747-4.472 2.747-3.88 0-4.527-2.25-4.527-3.449H7.412c0 2.632 1.353 7.104 9.114 7.104"/>
        </g>
    </g>
</svg>
