<svg xmlns="http://www.w3.org/2000/svg" width="52" height="53" viewBox="0 0 52 53">
    <g fill="none" fill-rule="evenodd" stroke="#00A2E0" stroke-width="2" opacity=".127">
        <path d="M46.577 38.08l-.019-.785.758-.205A4.996 4.996 0 0 0 51 32.263V24.04c0-1.79-.946-3.414-2.457-4.308l-.49-.29v-5.514a4.998 4.998 0 0 0-5-4.998h-3.842V6.697a4.993 4.993 0 0 0-4.99-4.99h-4.23A4.987 4.987 0 0 0 25 6.697v40.02a4.993 4.993 0 0 0 4.99 4.99h4.23a4.987 4.987 0 0 0 4.99-4.913l.013-.836.825-.135c3.75-.617 6.53-3.807 6.53-7.56l-.001-.183z"/>
        <path d="M31 26.633V1.781c-3.383.503-6 3.52-6 7.173V19.46c0 3.654 2.614 6.671 6 7.174zM45.857 36.352a6.238 6.238 0 0 0-.064-.239c-.205-.7-.547-1.48-.882-1.989-1.386-2.098-3.885-3.417-6.646-3.417-2.083 0-4.019.75-5.441 2.024l13.033 3.62z"/>
        <path d="M5.423 38.08l.019-.785-.758-.205A4.996 4.996 0 0 1 1 32.263V24.04c0-1.79.946-3.414 2.457-4.308l.49-.29v-5.514a4.998 4.998 0 0 1 5-4.998h3.842V6.697a4.993 4.993 0 0 1 4.99-4.99h4.23c2.76 0 4.991 2.232 4.991 4.99v40.02a4.993 4.993 0 0 1-4.99 4.99h-4.23a4.987 4.987 0 0 1-4.99-4.913l-.013-.836-.825-.135c-3.75-.617-6.53-3.807-6.53-7.56l.001-.183z"/>
        <path d="M20.64 26.675L13.022 8.007c.458-3.582 3.427-6.3 6.958-6.3 3.865 0 7.02 3.242 7.02 7.247V19.46c0 3.776-2.8 6.873-6.36 7.216zM6.146 36.35c.697-3.203 3.816-5.643 7.59-5.643 2.082 0 4.018.75 5.44 2.024l-13.03 3.62z"/>
    </g>
</svg>
