<svg xmlns="http://www.w3.org/2000/svg" xmlns:xlink="http://www.w3.org/1999/xlink" width="1280" height="741" viewBox="0 0 1280 741">
    <defs>
        <linearGradient id="b" x1="100%" x2="3.693%" y1="50%" y2="50%">
            <stop offset="0%" stop-color="#02368D"/>
            <stop offset="100%" stop-color="#007FBA"/>
        </linearGradient>
        <path id="a" d="M0 0h1280v678H0z"/>
    </defs>
    <g fill="none" fill-rule="evenodd">
        <use fill="url(#b)" xlink:href="#a"/>
        <g opacity=".076" transform="rotate(10 694.717 5880.837)">
            <circle cx="130.5" cy="587.5" r="11.5" fill="#FFF"/>
            <circle cx="217.5" cy="408.5" r="11.5" fill="#FFF"/>
            <circle cx="24.5" cy="250.5" r="11.5" fill="#FFF"/>
            <circle cx="71.5" cy="482.5" r="11.5" fill="#FFF"/>
            <circle cx="287.5" cy="205.5" r="11.5" fill="#FFF"/>
            <circle cx="287.5" cy="674.5" r="11.5" fill="#FFF"/>
            <path stroke="#FFF" stroke-linecap="square" stroke-width="2" d="M287.293 673.917l99.699-27.734M287.177 679.014l9.843 32.79M27.5 255.5l40 223M29.5 249.5l189 158M27.5 249.5l264-44M24.5 251.5L264.03.704M290.5 209.5l-77 193M288.5 207.5l84 288M217.5 407.5l-147 76M220.5 409.5l-88.54 175.679M216.5 406.5l73 268M225.5 406.5l126-13M132.5 585.5l-61-97M134.5 590.5l150 86M126.826 593.221L.524 775.131"/>
        </g>
        <g opacity=".076" transform="rotate(-180 147.5 370)">
            <circle cx="117.5" cy="491.5" r="11.5" fill="#FFF"/>
            <circle cx="204.5" cy="312.5" r="11.5" fill="#FFF"/>
            <circle cx="11.5" cy="154.5" r="11.5" fill="#FFF"/>
            <circle cx="58.5" cy="386.5" r="11.5" fill="#FFF"/>
            <circle cx="15.5" cy="627.5" r="11.5" fill="#FFF"/>
            <circle cx="274.5" cy="109.5" r="11.5" fill="#FFF"/>
            <circle cx="274.5" cy="578.5" r="11.5" fill="#FFF"/>
            <path stroke="#FFF" stroke-linecap="square" stroke-width="2" d="M274.293 577.917l99.699-27.734M277.177 583.014l35.089 73.72M14.5 159.5l40 223M16.5 153.5l189 158M14.5 153.5l264-44M11.5 155.5L122.628.794M277.5 113.5l-77 193M275.5 111.5l84 288M204.5 311.5l-147 76M207.5 313.5l-88.54 175.679M203.5 310.5l73 268M212.5 310.5l126-13M119.5 489.5l-61-97M121.5 494.5l150 86M15.934 626.594l292.101-12.867M113.826 497.221L15.363 626.898l292.2 83.985"/>
        </g>
        <g transform="translate(110 540)">
            <path stroke="#1688C3" stroke-linecap="round" stroke-linejoin="round" stroke-width="3" d="M26 30v10"/>
            <circle cx="26" cy="45" r="2" fill="#1688C3" fill-rule="nonzero" transform="rotate(-30 26 45)"/>
            <path stroke="#1688C3" stroke-linecap="round" stroke-linejoin="round" stroke-width="3" d="M18 30v10h-4"/>
            <circle cx="9" cy="40" r="2" fill="#1688C3" fill-rule="nonzero" transform="rotate(-30 9 40)"/>
            <path stroke="#1688C3" stroke-linecap="round" stroke-linejoin="round" stroke-width="3" d="M33 30v10h4"/>
            <circle cx="42" cy="40" r="2" fill="#1688C3" fill-rule="nonzero" transform="rotate(-60 42 40)"/>
            <path stroke="#1688C3" stroke-linecap="round" stroke-linejoin="round" stroke-width="3" d="M25.727 30.281h-7.223m-6.565-.122l-1.64-.065a9.684 9.684 0 0 1-8.858-4.549 9.585 9.585 0 0 1-.115-9.92 9.682 9.682 0 0 1 8.75-4.751C11.905 4.97 17.098.724 23.273.084c6.174-.64 12.137 2.449 15.15 7.85.397-.036.802-.058 1.2-.058 5.868-.11 10.821 4.322 11.333 10.142.512 5.82-3.592 11.04-9.391 11.947l-2.044.23"/>
            <path stroke="#1688C3" stroke-linecap="round" stroke-linejoin="round" stroke-width="3" d="M29 19a11.198 11.198 0 0 1 3.262-7.82A10.802 10.802 0 0 1 40 8"/>
        </g>
        <g stroke="#1688C3" transform="translate(143 130)">
            <rect width="42" height="42" x="1" y="1" stroke-width="2" rx="2"/>
            <g transform="translate(17 9)">
                <rect width="9" height="1.4" x=".5" y=".5" rx=".7"/>
                <rect width="9" height="1.4" x=".5" y="10.1" rx=".7"/>
                <rect width="1.5" height="11" x=".5" y=".5" rx=".75"/>
                <rect width="5.25" height="1.4" x="1.75" y="5.3" rx=".7"/>
            </g>
            <rect width="9" height="1" x="10.5" y="26.5" rx=".5"/>
            <rect width="6" height="1" x="9.5" y="33.5" rx=".5"/>
            <rect width="6" height="1" x="18.5" y="33.5" rx=".5"/>
            <rect width="6" height="1" x="28.5" y="33.5" rx=".5"/>
            <rect width="9" height="1" x="24.5" y="26.5" rx=".5"/>
        </g>
        <g stroke="#1688C3" stroke-linecap="round" stroke-linejoin="round" stroke-width="3">
            <path d="M86 293h11M130 293h13M98 293l16-30 16 30M114 302v-34M98 301l16 23 16-23"/>
            <path d="M130 293l-16 10-16-10M114 323v-21"/>
        </g>
        <g stroke="#0153A1" stroke-linecap="round" stroke-linejoin="round" stroke-width="3">
            <path d="M975.306 570.707L968 565.97v-15.55l13.397-7.714L995 550.42v15.551l-7.512 4.736M995 550.42l13.397-7.713L1022 550.42v15.551l-7.512 4.736M1002 571.707l-7-5"/>
            <path d="M999.965 561.707l7.035 4.742v15.547l-12.9 7.71-13.1-7.71v-15.547l7.234-4.734"/>
        </g>
        <g stroke="#00A2E0" stroke-width="2" opacity=".127">
            <path d="M1151.577 283.08l-.019-.785.758-.205a4.996 4.996 0 0 0 3.684-4.827v-8.224c0-1.79-.946-3.414-2.457-4.308l-.49-.29v-5.514a4.998 4.998 0 0 0-5-4.998h-3.842v-2.232a4.993 4.993 0 0 0-4.99-4.99h-4.23a4.987 4.987 0 0 0-4.991 4.99v40.02a4.993 4.993 0 0 0 4.99 4.99h4.23a4.987 4.987 0 0 0 4.99-4.913l.013-.836.825-.135c3.75-.617 6.53-3.807 6.53-7.56l-.001-.183z"/>
            <path d="M1136 271.633v-24.852c-3.383.503-6 3.52-6 7.173v10.505c0 3.654 2.614 6.671 6 7.174zM1150.857 281.352a6.238 6.238 0 0 0-.064-.239c-.205-.7-.547-1.48-.882-1.989-1.386-2.098-3.885-3.417-6.646-3.417-2.083 0-4.019.75-5.441 2.024l13.033 3.62z"/>
            <path d="M1110.423 283.08l.019-.785-.758-.205a4.996 4.996 0 0 1-3.684-4.827v-8.224c0-1.79.946-3.414 2.457-4.308l.49-.29v-5.514a4.998 4.998 0 0 1 5-4.998h3.842v-2.232a4.993 4.993 0 0 1 4.99-4.99h4.23c2.76 0 4.991 2.232 4.991 4.99v40.02a4.993 4.993 0 0 1-4.99 4.99h-4.23a4.987 4.987 0 0 1-4.99-4.913l-.013-.836-.825-.135c-3.75-.617-6.53-3.807-6.53-7.56l.001-.183z"/>
            <path d="M1125.64 271.675l-7.618-18.668c.458-3.582 3.427-6.3 6.958-6.3 3.865 0 7.02 3.242 7.02 7.247v10.505c0 3.776-2.8 6.873-6.36 7.216zM1111.146 281.35c.697-3.203 3.816-5.643 7.59-5.643 2.082 0 4.018.75 5.44 2.024l-13.03 3.62z"/>
        </g>
        <g stroke="#00A2E0" stroke-width="2" opacity=".202">
            <path stroke-linecap="round" d="M1074 411.707l-9 9"/>
            <path d="M1060.516 435.43c-.15.133-.273.237-.366.312.14-.113.024-.035.35-.035.302 0 .33.016.49.135a3.454 3.454 0 0 1-.166-.136 15.658 15.658 0 0 1-.308-.275z"/>
        </g>
    </g>
</svg>
