<svg xmlns="http://www.w3.org/2000/svg" width="44" height="50" viewBox="0 0 44 50">
    <g fill="#FFF" fill-rule="nonzero">
        <path d="M19.228 4.084l.709-.565.718-.515C24.983.02 28.585-.776 30.897.843l10.753 7.53c2.282 1.597 2.796 5.275 1.442 10.341-1.087 4.238-3.412 9.156-6.524 13.92-.386.615-.78 1.18-1.197 1.773-.353.504-.727 1.039-1.152 1.581-3.454 4.614-7.322 8.54-10.953 11.04-4.298 3.007-7.938 3.73-10.191 2.153L2.322 41.652C.04 40.054-.474 36.377.85 31.29l.259-.88.258-.881c1.433-4.349 3.97-9.251 7.233-13.91 3.272-4.61 6.981-8.692 10.628-11.534zm-7.12 33.053l.021-.03c.182-.58.395-1.139.598-1.748l.318-.839c.054-.14.127-.309.18-.449l.021-.03.16-.419c.041-.059.032-.11.073-.17.033-.11.095-.198.148-.338.021-.03.032-.11.053-.14l.106-.28c.148-.338.305-.626.474-.995l.094-.199.284-.597a64.456 64.456 0 0 1 4.644-7.718 63.407 63.407 0 0 1 5.623-6.944c.237-.276.484-.5.722-.776.351-.374.732-.726 1.063-1.07l.462-.34c.226-.195.401-.382.628-.577.02-.03.092-.068.113-.098l.02-.03.36-.323c.073-.038.114-.097.206-.165l.042-.06c.185-.136.36-.322.545-.458.072-.039.134-.128.206-.166l.34-.293c.07-.038.133-.128.205-.166.041-.06.092-.068.134-.127l.02-.03-9.16-6.414C17.205 7.93 13.416 12 10.11 16.72c-3.304 4.719-5.853 9.701-7.164 14.003l9.161 6.414zM29.312 14.55c-.042.06-.093.068-.134.127l-.042.06-.042.06-.041.059-.02.03c-.206.165-.382.352-.608.547l-.36.323c-.36.322-.691.666-1.042 1.04-.217.246-.464.47-.681.717-1.91 2.024-3.744 4.323-5.448 6.757a60.446 60.446 0 0 0-4.498 7.51c-.136.259-.272.517-.378.797-.148.338-.305.627-.432.936-.127.309-.263.567-.39.877l-.16.419-.02.03-.16.419c-.032.11-.073.17-.106.28 2.48-2.2 5.033-5.014 7.346-8.126.425-.543.779-1.048 1.132-1.552.415-.594.81-1.158 1.154-1.713 2.023-3.272 3.71-6.514 4.93-9.597zm.546-12.223c-1.562-1.094-5.074.463-7.252 1.916l8.802 6.29a24.552 24.552 0 0 1 2.714-1.638c.265-.124.5-.268.746-.362.245-.094.46-.21.704-.303.072-.038.173-.056.245-.094.173-.056.296-.103.469-.158.102-.018.173-.056.275-.073.122-.047.275-.073.397-.12.102-.017.173-.056.275-.073.102-.017.173-.056.275-.073l-7.63-5.342-.02.03zm-7.62 43.23c3.466-2.394 7.2-6.193 10.53-10.629l1.102-1.573c.395-.564.79-1.128 1.154-1.712 3.009-4.617 5.26-9.366 6.333-13.391 1.117-4.216.846-7.281-.716-8.375l-.15-.105c-.12-.084-.231-.118-.292-.16a3.701 3.701 0 0 0-.958-.229c-.132-.003-.294-.028-.425-.032-.183.005-.335.031-.518.036l-.254.043a9.2 9.2 0 0 0-2.374.77c-.194.086-.44.18-.654.294-.266.124-.501.269-.767.392l-.215.115c-.214.115-.378.222-.593.337-.092.068-.185.136-.307.183-.164.106-.328.212-.513.348a1.778 1.778 0 0 0-.39.302.666.666 0 0 0-.206.166c-1.214 3.97-3.347 8.36-6.22 12.718-.344.555-.76 1.149-1.196 1.772-.353.505-.727 1.039-1.152 1.582-3.154 4.249-6.59 7.814-9.928 10.342a24.567 24.567 0 0 0-.738 3.42c-.034.241-.069.482-.053.715-.067.926-.04 1.785.089 2.495l.027.152.01.05c.057.174.085.326.113.478.049.122.106.295.155.418.136.317.314.574.513.801.07.093.19.177.28.24l.15.106c1.61 1.216 4.583.422 8.163-2.07zM3.34 40.197L11 45.562a.963.963 0 0 1-.026-.283c-.018-.102-.007-.182-.025-.284.002-.13-.026-.283-.024-.414-.018-.101-.007-.182-.025-.283-.007-.182-.005-.313-.012-.495.012-.08-.007-.182-.016-.232.004-.263.009-.525.044-.766.004-.262.06-.533.085-.825.048-.453.147-.914.217-1.396.11-.542.242-1.113.394-1.714l.173.369-9.16-6.415c-1.097 4.187-.846 6.281.715 7.375z"/>
        <path d="M16.675 10.479c.372-.403.723-.777 1.124-1.159a4.428 4.428 0 0 1 5.674-.495 4.38 4.38 0 0 1 1.86 3.16 4.389 4.389 0 0 1-1.175 3.468l-.238.276a61.205 61.205 0 0 0-5.519 6.795 61.205 61.205 0 0 0-4.497 7.51l-.157.289a4.389 4.389 0 0 1-2.857 2.29 4.38 4.38 0 0 1-3.606-.668c-1.772-1.24-2.401-3.539-1.476-5.5.231-.458.453-.966.684-1.423a62.886 62.886 0 0 1 4.58-7.63 62.886 62.886 0 0 1 5.603-6.913zm-9.2 15.055c-.23.457-.482.945-.662 1.394-.674 1.474-.227 3.202 1.094 4.127.781.547 1.76.746 2.717.531a3.312 3.312 0 0 0 2.148-1.725l.177-.318a62.886 62.886 0 0 1 4.581-7.629A62.886 62.886 0 0 1 23.132 15l.238-.275c.66-.688.982-1.657.887-2.609-.095-.95-.618-1.803-1.429-2.37-1.321-.926-3.128-.776-4.252.383-.351.373-.732.726-1.104 1.129a61.205 61.205 0 0 0-9.996 14.276z"/>
        <path d="M22.258 10.496c1.081.757 1.338 2.308.548 3.436-.79 1.128-2.305 1.438-3.416.66-1.081-.758-1.338-2.309-.548-3.436.82-1.107 2.335-1.417 3.416-.66zM20.014 13.7c.6.42 1.434.253 1.891-.4.458-.653.33-1.494-.27-1.915-.601-.42-1.435-.252-1.892.4-.457.654-.3 1.516.27 1.915z"/>
    </g>
</svg>
