<svg xmlns="http://www.w3.org/2000/svg" width="54" height="50" viewBox="0 0 54 50">
    <path fill="#FFF" fill-rule="nonzero" d="M52.93 50H25.848c-.591 0-1.07-.492-1.07-1.099v-3.923c0-.607.479-1.099 1.07-1.099h11.016l1.08-3.662V35.83H25.849c-.591 0-1.07-.492-1.07-1.099s.479-1.098 1.07-1.098h12.839c1.748-1.286 2.429-3.28 1.824-5.39-.476-1.66-1.62-2.943-2.882-3.33v3.31c0 .206-.056.407-.162.582l-1.664 2.74c-.196.322-.54.518-.91.518h-2.39c-.362 0-.7-.188-.897-.499l-1.728-2.718a1.115 1.115 0 0 1-.174-.6V5.712c0-.45.264-.837.642-1.006V2.03C30.346.815 31.595 0 32.76 0h1.94c1.261 0 2.287.91 2.287 2.03v2.676a1.1 1.1 0 0 1 .642 1.006v.94c.182-.022.366-.034.554-.034 2.62 0 4.75 2.186 4.75 4.874 0 1.58-.737 2.988-1.876 3.879v3.817c3.838 1.078 10.412 5.274 11.59 11.99.548 3.123-.02 5.907-1.596 7.841l-.061.075.758 4.785h1.181c.591 0 1.071.492 1.071 1.099v3.923c0 .607-.48 1.099-1.07 1.099zm-26.01-2.197h24.939v-1.726h-24.94v1.726zM39.1 43.879h10.477l-.51-3.214c-.986.533-2.115.813-3.32.813H39.81l-.709 2.401zm.985-4.598h5.661c1.504 0 2.77-.578 3.66-1.67 1.163-1.426 1.565-3.573 1.131-6.045-1.11-6.333-8.027-9.965-10.724-10.413a1.091 1.091 0 0 1-.9-1.085v-3.76a4.686 4.686 0 0 1-1.285.025v6.328c2.21.375 4.177 2.31 4.937 4.962.67 2.338.338 5.518-2.48 7.68v3.978zm-7.003-9.416h1.216l1.188-1.956v-1.104h-3.642v1.113l1.238 1.947zm-1.238-5.257h3.642v-9.104a4.909 4.909 0 0 1-2.056-4.012 4.91 4.91 0 0 1 2.056-4.012v-.669h-3.642v17.797zM36.867 9.18a2.692 2.692 0 0 0-1.293 2.312c0 1.476 1.17 2.676 2.609 2.676 1.438 0 2.609-1.2 2.609-2.676 0-1.476-1.171-2.677-2.61-2.677-.351 0-.687.072-.994.202a1.047 1.047 0 0 1-.32.163zm-4.38-4.567h2.357V2.22a.421.421 0 0 0-.144-.024h-1.94a.647.647 0 0 0-.272.066v2.352zM46.8 38.054c-1.848 0-3.351-1.543-3.351-3.439 0-1.896 1.503-3.437 3.351-3.437s3.351 1.541 3.351 3.437-1.503 3.438-3.35 3.438zm0-4.679c-.667 0-1.21.557-1.21 1.24 0 .685.543 1.242 1.21 1.242.667 0 1.21-.557 1.21-1.241s-.543-1.24-1.21-1.24zm-32.672.047C6.337 33.422 0 26.922 0 18.932s6.337-14.49 14.127-14.49c7.79 0 14.127 6.5 14.127 14.49s-6.337 14.49-14.127 14.49zm0-26.784c-6.608 0-11.985 5.515-11.985 12.294 0 6.779 5.377 12.293 11.985 12.293s11.985-5.514 11.985-12.293c0-6.779-5.377-12.294-11.985-12.294zm7.038 18.414c-.591 0-1.07-.491-1.07-1.098V18.33c0-.607.479-1.098 1.07-1.098.591 0 1.071.491 1.071 1.098v5.624c0 .607-.48 1.098-1.07 1.098zm-4.692 0c-.591 0-1.071-.491-1.071-1.098v-1.857c0-.607.48-1.099 1.07-1.099.592 0 1.072.492 1.072 1.099v1.857c0 .607-.48 1.098-1.071 1.098zm-4.692 0c-.592 0-1.071-.491-1.071-1.098V13.936c0-.607.48-1.099 1.07-1.099.592 0 1.072.492 1.072 1.099v10.018c0 .607-.48 1.098-1.071 1.098zm-4.692 0c-.591 0-1.071-.491-1.071-1.098v-6.252c0-.607.48-1.098 1.07-1.098.592 0 1.072.491 1.072 1.098v6.252c0 .607-.48 1.098-1.071 1.098z"/>
</svg>
