<svg xmlns="http://www.w3.org/2000/svg" width="1100" height="108" viewBox="0 0 1100 108">
    <g fill="none" fill-rule="evenodd" transform="translate(0 1)">
        <path fill="#27BBFF" d="M770.876 82h91.405c1.404 7.403 7.908 13 15.719 13 7.811 0 14.315-5.597 15.72-13h91.404c.984 7.893 7.717 14 15.876 14 8.16 0 14.892-6.107 15.876-14H1100v-5h-83.28c-1.405-7.403-7.909-13-15.72-13-7.811 0-14.315 5.597-15.72 13h-91.404c-.984-7.893-7.717-14-15.876-14-8.16 0-14.892 6.107-15.876 14h-91.405c-1.404-7.403-7.908-13-15.719-13-7.811 0-14.315 5.597-15.72 13h-91.784c-1.776-6.9-8.04-12-15.496-12-7.455 0-13.72 5.1-15.496 12H524.72c-1.404-7.403-7.908-13-15.719-13-7.811 0-14.315 5.597-15.72 13h-91.56c-1.405-7.403-7.909-13-15.72-13-7.811 0-14.315 5.597-15.72 13h-91.56c-1.405-7.403-7.909-13-15.72-13-7.811 0-14.315 5.597-15.72 13h-91.56c-1.405-7.403-7.909-13-15.72-13-7.811 0-14.315 5.597-15.72 13H31.72C30.314 69.597 23.81 64 16 64 8.189 64 1.685 69.597.28 77H0v5h.124C1.108 89.893 7.84 96 16 96c8.16 0 14.892-6.107 15.876-14h92.248c.984 7.893 7.717 14 15.876 14 8.16 0 14.892-6.107 15.876-14h91.248c.984 7.893 7.717 14 15.876 14 8.16 0 14.892-6.107 15.876-14h91.248c.984 7.893 7.717 14 15.876 14 8.16 0 14.892-6.107 15.876-14h91.248c.984 7.893 7.717 14 15.876 14 8.16 0 14.892-6.107 15.876-14h91.155c.516 8.37 7.468 15 15.969 15 8.5 0 15.453-6.63 15.97-15h91.154c.984 7.893 7.717 14 15.876 14 8.16 0 14.892-6.107 15.876-14z" opacity=".292"/>
        <circle cx="16" cy="80" r="10" fill="#3EC2FF"/>
        <circle cx="140" cy="80" r="10" fill="#3EC2FF"/>
        <circle cx="263" cy="80" r="10" fill="#3EC2FF"/>
        <circle cx="386" cy="80" r="10" fill="#3EC2FF"/>
        <circle cx="509" cy="80" r="10" fill="#003F66"/>
        <circle cx="632" cy="81" r="10" fill="#003F66"/>
        <circle cx="755" cy="80" r="10" fill="#003F66"/>
        <circle cx="878" cy="79" r="10" fill="#003F66"/>
        <circle cx="1001" cy="80" r="10" fill="#003F66"/>
        <path stroke="#37C0FF" stroke-linecap="square" d="M17 77V49M263 77V48"/>
        <path stroke="#1F6595" stroke-linecap="square" d="M509 67.987V33M755 66.11V33"/>
        <path stroke="#37C0FF" stroke-linecap="square" d="M140 106V82M386 106V82"/>
        <path stroke="#1F6595" stroke-linecap="square" d="M632 106V94M878 105.618V90M1001 67.685V0"/>
    </g>
</svg>
