<svg xmlns="http://www.w3.org/2000/svg" width="562" height="561"><g fill="none" fill-rule="evenodd"><path fill="#234F82" d="M286.527 57.562L475.39 194.78a6 6 0 0 1 2.18 6.708l-72.14 222.024a6 6 0 0 1-5.706 4.146h-233.45a6 6 0 0 1-5.706-4.146L88.43 201.488a6 6 0 0 1 2.18-6.708L279.473 57.562a6 6 0 0 1 7.054 0z"/><path fill="#2E83F8" d="M283.028 255.52l6.33 5.612a1 1 0 0 1-.663 1.748h-12.66a1 1 0 0 1-.664-1.748l6.33-5.613a1 1 0 0 1 1.327 0zm-1.298 31.012l-6.172-5.07a1 1 0 0 1 .634-1.772h12.345a1 1 0 0 1 .635 1.772l-6.173 5.07a1 1 0 0 1-1.269 0zm-2.727-23.652h6.724v16.81h-6.724v-16.81z"/><path fill="#FFF" fill-rule="nonzero" d="M299.803 325.568v-16.254c1.441-.403 2.333-1.813 1.99-3.29-.343-1.478-1.921-2.284-3.362-1.948-1.441.335-2.333 1.813-1.99 3.29.275.94 1.03 1.68 1.99 1.948v16.254c-.412.067-.755.134-1.098.268v-.067l-4.117-5.977-.068-.068a2.697 2.697 0 0 0-.069-3.828 2.84 2.84 0 0 0-3.91.067c-.138.135-.207.269-.344.403 0 0-.069 0-.069-.067l-15.026-5.373v-.201c0-1.478-1.235-2.687-2.744-2.687-1.51 0-2.745 1.21-2.745 2.687 0 1.477 1.235 2.686 2.745 2.686l1.372 5.776c-4.117.739-6.793 4.634-6.038 8.597.412 2.015 1.578 3.761 3.362 4.836l-6.038 9.2c-1.44-.47-3.019.27-3.499 1.613s.274 2.955 1.647 3.425c1.44.47 3.019-.269 3.499-1.612.137-.336.206-.604.206-.94 0-.672-.275-1.276-.686-1.746l6.106-9.269c2.264.873 4.803.672 6.861-.604l3.911 4.903c-.823 1.276-.411 2.888.892 3.694 1.304.806 2.95.403 3.774-.874.412-.671.549-1.544.274-2.283h.07l8.85-4.567c.069 0 .069-.067.137-.067 1.784 1.88 4.872 2.015 6.793.201 1.921-1.813 2.058-4.768.206-6.649-.823-.806-1.784-1.343-2.882-1.477zm-37.05 20.081c-.755 0-1.373-.604-1.373-1.343s.618-1.343 1.372-1.343c.755 0 1.373.604 1.373 1.343s-.618 1.343-1.373 1.343zm34.992-38.954c0-.739.617-1.343 1.372-1.343.755 0 1.372.604 1.372 1.343s-.617 1.343-1.372 1.343c-.755 0-1.372-.604-1.372-1.343zm-1.578 19.813c-.755.604-1.373 1.477-1.647 2.418l-13.242-2.082v-.47a6.8 6.8 0 0 0-.412-2.351l8.096-4.5c.686.873 1.921 1.276 3.02.873 0 .067 0 .067.068.067l4.117 6.045zm-5.078-9.94c.755 0 1.373.604 1.373 1.343s-.618 1.343-1.373 1.343c-.754 0-1.372-.604-1.372-1.343s.618-1.343 1.372-1.343zm-21.475-5.843c0-.74.617-1.344 1.372-1.344.755 0 1.372.605 1.372 1.344 0 .739-.617 1.343-1.372 1.343-.755 0-1.372-.604-1.372-1.343zm2.744 2.418l-.206.067c.48-.202.892-.538 1.167-.94l15.026 5.44h.068v.268c0 .135 0 .269.069.403l-8.165 4.433c-1.304-2.35-3.842-3.828-6.587-3.828l-1.372-5.843zm-4.803 13.23c0-3.358 2.745-6.044 6.175-6.044 3.43 0 6.175 2.686 6.175 6.045 0 3.358-2.744 6.044-6.175 6.044-3.43 0-6.175-2.686-6.175-6.044zm16.467 13.903c-.755 0-1.372-.604-1.372-1.343s.617-1.343 1.372-1.343c.755 0 1.372.604 1.372 1.343s-.617 1.343-1.372 1.343zm1.99-3.425c-.069 0-.069.067-.137.134-.892-.806-2.196-1.007-3.225-.336l-3.774-4.768c1.098-1.008 1.853-2.216 2.196-3.627l13.242 2.015c0 .672.206 1.41.48 2.015l-8.782 4.567zm13.105-3.291c-1.921 0-3.43-1.478-3.43-3.358 0-1.88 1.509-3.358 3.43-3.358 1.921 0 3.43 1.477 3.43 3.358 0 1.88-1.509 3.358-3.43 3.358zm-17.194-144.608c.43 0 .808.38.808.813a.831.831 0 0 1-.808.813h-10.77a.831.831 0 0 1-.807-.813.83.83 0 0 1 .808-.813h10.77zm-4.846-29.386v4.88h-4.846v3.795h4.846v4.88h3.77v-4.88h4.845v-3.795h-4.846v-4.88h-3.77zM269 177.024c-.43 0-.808.38-.808.813 0 .434.377.814.808.814.43 0 .808-.38.808-.814a.831.831 0 0 0-.808-.813zm0 7.97c-.43 0-.808.38-.808.813a.83.83 0 0 0 .808.813c.43 0 .808-.379.808-.813a.831.831 0 0 0-.808-.813zm0 3.958c-.43 0-.808.38-.808.813a.83.83 0 0 0 .808.813c.43 0 .808-.38.808-.813a.831.831 0 0 0-.808-.813zm0-7.97c-.43 0-.808.38-.808.813a.83.83 0 0 0 .808.813c.43 0 .808-.38.808-.813a.831.831 0 0 0-.808-.813zm17.5 9.596c.43 0 .808-.38.808-.813a.831.831 0 0 0-.808-.813c-.43 0-.808.38-.808.813 0 .434.323.813.808.813zm-2.962-.813a.83.83 0 0 0 .808.813c.43 0 .808-.38.808-.813a.831.831 0 0 0-.808-.813c-.43 0-.808.38-.808.813zm5.816.38c-.43-.272-.862-.651-1.239-.976-.161.162-.323.38-.323.65 0 .434.377.814.808.814.377-.055.646-.217.754-.488zm-18.2-5.151c-.43 0-.808.38-.808.813a.83.83 0 0 0 .808.813h15.023c-.27-.542-.539-1.084-.7-1.626h-14.323zm0-2.386h13.784c-.053-.325-.053-.704-.053-1.03 0-.217 0-.38.053-.596h-13.784c-.43 0-.808.38-.808.813 0 .434.323.813.808.813zm-.808-4.77c0 .433.377.813.808.813h14.108c.161-.543.376-1.085.646-1.627h-14.754a.796.796 0 0 0-.808.813zm23.8 13.987c-.43 1.464-1.777 2.548-3.338 2.548h-23.693a3.505 3.505 0 0 1-3.5-3.524v-34.698a3.505 3.505 0 0 1 3.5-3.524h23.693c1.938 0 3.5 1.572 3.5 3.524v15.18c.269 0 .538-.054.807-.054.27 0 .539 0 .808.054v-15.18c0-2.82-2.315-5.151-5.115-5.151h-23.693c-2.8 0-5.115 2.331-5.115 5.15v34.7c0 2.819 2.315 5.15 5.115 5.15h23.693c2.477 0 4.577-1.79 5.007-4.12-.215 0-.484.054-.7.054-.323-.054-.646-.054-.969-.109zM304 181.578c0 4.934-3.985 8.946-8.885 8.946s-8.884-4.012-8.884-8.946c0-4.933 3.984-8.945 8.884-8.945s8.885 4.012 8.885 8.945zm-1.615 0c0-4.012-3.285-7.319-7.27-7.319-3.984 0-7.269 3.307-7.269 7.32 0 4.011 3.285 7.319 7.27 7.319 3.984 0 7.269-3.253 7.269-7.32zm-8.077 4.555h1.615v-6.506h-1.615v6.506zm0-7.428h1.615v-1.627h-1.615v1.627z"/><path fill="#19395E" d="M283 561c44.735 0 81-36.265 81-81 0-6.115-.678-12.072-1.962-17.8C353.927 426.028 321.62 399 283 399c-44.735 0-81 36.265-81 81s36.265 81 81 81z"/><circle cx="283" cy="480" r="77" fill="#2E83F8"/><circle cx="81" cy="320" r="81" fill="#19395E"/><circle cx="153" cy="81" r="81" fill="#19395E"/><circle cx="81" cy="320" r="77" fill="#2E83F8"/><path fill="#FFF" fill-rule="nonzero" d="M109.93 325H82.848c-.591 0-1.07-.492-1.07-1.099v-3.923c0-.607.479-1.099 1.07-1.099h11.016l1.08-3.662v-4.388H82.849c-.591 0-1.07-.492-1.07-1.099s.479-1.098 1.07-1.098h12.839c1.748-1.286 2.429-3.28 1.824-5.39-.476-1.66-1.62-2.943-2.882-3.33v3.31c0 .206-.056.407-.162.582l-1.664 2.74c-.196.322-.54.518-.91.518h-2.39c-.362 0-.7-.188-.897-.499l-1.728-2.718a1.115 1.115 0 0 1-.174-.6v-22.533c0-.45.264-.837.642-1.006v-2.675c0-1.216 1.249-2.031 2.414-2.031h1.94c1.261 0 2.287.91 2.287 2.03v2.676a1.1 1.1 0 0 1 .642 1.006v.94c.182-.022.366-.034.554-.034 2.62 0 4.75 2.186 4.75 4.874 0 1.58-.737 2.988-1.876 3.879v3.817c3.838 1.078 10.412 5.274 11.59 11.99.548 3.123-.02 5.907-1.596 7.841l-.061.075.758 4.785h1.181c.591 0 1.071.492 1.071 1.099v3.923c0 .607-.48 1.099-1.07 1.099zm-26.01-2.197h24.939v-1.726h-24.94v1.726zm12.181-3.924h10.477l-.51-3.214c-.986.533-2.115.813-3.32.813H96.81l-.709 2.401zm.985-4.598h5.661c1.504 0 2.77-.578 3.66-1.67 1.163-1.426 1.565-3.573 1.131-6.045-1.11-6.333-8.027-9.965-10.724-10.413a1.091 1.091 0 0 1-.9-1.085v-3.76a4.686 4.686 0 0 1-1.285.025v6.328c2.21.375 4.177 2.31 4.937 4.962.67 2.338.338 5.518-2.48 7.68v3.978zm-7.003-9.416h1.216l1.188-1.956v-1.104h-3.642v1.113l1.238 1.947zm-1.238-5.257h3.642v-9.104a4.909 4.909 0 0 1-2.056-4.012 4.91 4.91 0 0 1 2.056-4.012v-.669h-3.642v17.797zm5.022-15.427a2.692 2.692 0 0 0-1.293 2.312c0 1.476 1.17 2.676 2.609 2.676 1.438 0 2.609-1.2 2.609-2.676 0-1.476-1.171-2.677-2.61-2.677-.351 0-.687.072-.994.202a1.047 1.047 0 0 1-.32.163zm-4.38-4.567h2.357v-2.394a.421.421 0 0 0-.144-.024h-1.94a.647.647 0 0 0-.272.066v2.352zm14.312 33.44c-1.848 0-3.351-1.543-3.351-3.439 0-1.896 1.503-3.437 3.351-3.437s3.351 1.541 3.351 3.437-1.503 3.438-3.35 3.438zm0-4.679c-.667 0-1.21.557-1.21 1.24 0 .685.543 1.242 1.21 1.242.667 0 1.21-.557 1.21-1.241s-.543-1.24-1.21-1.24zm-32.672.047c-7.79 0-14.127-6.5-14.127-14.49s6.337-14.49 14.127-14.49c7.79 0 14.127 6.5 14.127 14.49s-6.337 14.49-14.127 14.49zm0-26.784c-6.608 0-11.985 5.515-11.985 12.294 0 6.779 5.377 12.293 11.985 12.293s11.985-5.514 11.985-12.293c0-6.779-5.377-12.294-11.985-12.294zm7.038 18.414c-.591 0-1.07-.491-1.07-1.098v-5.624c0-.607.479-1.098 1.07-1.098.591 0 1.071.491 1.071 1.098v5.624c0 .607-.48 1.098-1.07 1.098zm-4.692 0a1.085 1.085 0 0 1-1.071-1.098v-1.857c0-.607.48-1.099 1.07-1.099.592 0 1.072.492 1.072 1.099v1.857c0 .607-.48 1.098-1.071 1.098zm-4.692 0a1.084 1.084 0 0 1-1.071-1.098v-10.018c0-.607.48-1.099 1.07-1.099.592 0 1.072.492 1.072 1.099v10.018c0 .607-.48 1.098-1.071 1.098zm-4.692 0a1.085 1.085 0 0 1-1.071-1.098v-6.252c0-.607.48-1.098 1.07-1.098.592 0 1.072.491 1.072 1.098v6.252c0 .607-.48 1.098-1.071 1.098z"/><g fill="#FFF" fill-rule="nonzero"><path d="M305.775 471.828a44.998 44.998 0 0 1-.014-2.134c.004-.313.006-.626.006-.938l.001-.812v-.229c-.001-.87-.003-1.77.005-2.66a382.881 382.881 0 0 1-3.279-.82c-.876-.22-1.781-.449-2.672-.67a.485.485 0 0 0-.205-.003c-.875.217-1.764.442-2.625.659-1.093.276-2.22.56-3.337.833l.004.745c.01 2.005.021 4.078-.008 6.12-.02 1.428.42 2.67 1.344 3.802 1.13 1.383 2.631 2.465 4.717 3.4 1.776-.78 3.183-1.736 4.301-2.917 1.248-1.317 1.824-2.749 1.762-4.376zm-2.104-2.904c-.537.695-1.076 1.389-1.612 2.085-.872 1.134-1.74 2.27-2.613 3.402-.491.637-.886.63-1.354-.015l-2.318-3.201c-.261-.36-.259-.734.003-.978.26-.244.635-.22.967.07.567.495 1.13.995 1.697 1.492.09.08.189.152.375.3.073-.118.121-.242.207-.33a580.723 580.723 0 0 1 3.59-3.618c.13-.13.298-.253.47-.3.283-.076.534.036.681.306.151.279.095.544-.093.787z"/><path d="M309.823 471.783a34.869 34.869 0 0 1-.02-1.336h.015v-3.353c-.003-1.097-.005-2.231.007-3.338.014-1.353-.749-2.35-2.044-2.666-1.262-.308-2.547-.633-3.79-.947l-.554-.139c-.94-.238-1.913-.483-2.87-.72a3.578 3.578 0 0 0-1.692-.004c-1.052.26-2.1.525-3.074.772-1.208.305-2.71.684-4.14 1.032-1.295.315-2.064 1.322-2.058 2.693l.006 1.194c.012 2.295.024 4.669-.009 6.993-.033 2.388.728 4.551 2.262 6.43 1.655 2.026 3.802 3.577 6.758 4.882.327.144.7.22 1.08.22.389 0 .779-.08 1.127-.23 2.494-1.084 4.49-2.439 6.103-4.142 2.023-2.14 2.997-4.61 2.893-7.34zm-4.6 5.816c-1.436 1.517-3.24 2.749-5.51 3.76-2.67-1.21-4.598-2.609-6.05-4.386-1.184-1.45-1.747-3.041-1.722-4.868.038-2.716.024-5.472.01-8.138l-.004-.759c1.407-.345 2.825-.703 4.201-1.05 1.148-.29 2.334-.59 3.502-.88a.365.365 0 0 1 .143.004c1.158.288 2.335.585 3.474.873 1.378.347 2.797.706 4.212 1.055a355.891 355.891 0 0 0-.004 3.288v.062l-.001 1.345c0 .415-.004.83-.008 1.245-.009.926-.019 1.883.017 2.84.08 2.083-.66 3.917-2.26 5.609zm-14.813-24.504h-3.454v-3.484h-4.769v3.484h-3.453v4.81h3.453v3.484h4.77v-3.483h3.453zm-3.617 12.192h-11.238a.944.944 0 0 0-.94.948c0 .523.42.947.94.947H286.8l-.008-1.895zm-.01 6.636c.007-.508.011-1.02.015-1.533h-11.243a.944.944 0 0 0-.94.948c0 .523.42.948.94.948h11.23c0-.121-.004-.24-.002-.363zm.446 3.571h-11.674a.944.944 0 0 0-.94.948c0 .523.42.947.94.947h12.363a12.24 12.24 0 0 1-.69-1.895z"/><path d="M290.201 480.79h-19.28v-34.58h22.803v3.049c0 .766.616 1.387 1.375 1.387h3.124v5.869a6.31 6.31 0 0 1 2.751-.05v-7.206c0-.374-.149-.732-.414-.993l-4.5-4.436a1.368 1.368 0 0 0-.96-.395h-25.555c-.76 0-1.376.621-1.376 1.387v37.356c0 .766.616 1.387 1.376 1.387h23.786a18.067 18.067 0 0 1-3.13-2.775z"/></g><path fill="#19395E" d="M481 401c44.735 0 81-36.265 81-81 0-14.844-3.993-28.756-10.964-40.72C537 255.19 510.891 239 481 239c-44.735 0-81 36.265-81 81s36.265 81 81 81z"/><circle cx="481" cy="320" r="77" fill="#2E83F8"/><g fill="#FFF" fill-rule="nonzero"><path d="M486.221 293h-4.128v4.345H478v4.346h4.093V306h4.128v-4.31H490v-4.345h-3.779V293z"/><path d="M504.91 323c.601 0 1.09-.492 1.09-1.1v-27.313c0-.608-.488-1.1-1.09-1.1h-6.7v-7.866c0-.608-.487-1.1-1.09-1.1h-3.371v-4.42c0-.608-.489-1.101-1.091-1.101h-17.24c-.602 0-1.09.493-1.09 1.1v4.42h-3.373c-.602 0-1.09.492-1.09 1.1v7.866h-6.774c-.602 0-1.091.493-1.091 1.1V321.9c0 .608.488 1.1 1.09 1.1l41.82.001zm-35.045-2.2h-5.684v-25.113h5.684V320.8zm6.643-39.599h15.06v3.32h-15.06v-3.32zm11.36 39.361h-7.66v-5.185h7.66v5.185zm8.086.238h-5.906v-6.523c0-.608-.488-1.1-1.09-1.1h-9.84c-.602 0-1.09.492-1.09 1.1v6.523h-5.982v-34.08h23.984l-.076 34.08zm7.865 0h-5.608v-25.113h5.608V320.8z"/></g><circle cx="153" cy="81" r="77" fill="#2E83F8"/><g fill="#FFF" fill-rule="nonzero"><path d="M148.582 41.487c-.143.244-.37.441-.66.545a8.796 8.796 0 0 0-4.624 3.816 8.569 8.569 0 0 0-1.047 5.848 1.242 1.242 0 0 1-1.022 1.438 1.26 1.26 0 0 1-1.46-1.006 11.02 11.02 0 0 1 1.347-7.52 11.311 11.311 0 0 1 5.945-4.909 1.267 1.267 0 0 1 1.615.743c.132.36.086.739-.094 1.045z"/><path d="M146.858 36.825a1.25 1.25 0 0 1-.661.545 13.821 13.821 0 0 0-7.265 5.998 13.464 13.464 0 0 0-1.646 9.189 1.242 1.242 0 0 1-1.022 1.438 1.258 1.258 0 0 1-1.46-1.006 15.92 15.92 0 0 1 1.945-10.862 16.338 16.338 0 0 1 8.587-7.09 1.266 1.266 0 0 1 1.615.743c.132.36.086.74-.093 1.045z"/><path d="M145.133 32.162c-.143.244-.37.441-.661.545a18.912 18.912 0 0 0-5.598 3.152 18.614 18.614 0 0 0-4.308 5.028 18.36 18.36 0 0 0-2.271 6.186 18.246 18.246 0 0 0 .025 6.347 1.242 1.242 0 0 1-1.022 1.437c-.685.12-1.34-.33-1.46-1.006a20.68 20.68 0 0 1-.028-7.194 20.8 20.8 0 0 1 2.573-7.01 21.099 21.099 0 0 1 4.883-5.699 21.453 21.453 0 0 1 6.345-3.572 1.267 1.267 0 0 1 1.615.742 1.22 1.22 0 0 1-.093 1.044z"/></g><g fill="#FFF" fill-rule="nonzero"><path d="M160.228 38.084l.709-.565.718-.515c4.328-2.985 7.93-3.78 10.242-2.161l10.753 7.53c2.282 1.597 2.796 5.275 1.442 10.341-1.087 4.238-3.412 9.156-6.524 13.92-.386.615-.78 1.18-1.197 1.773-.353.504-.727 1.039-1.152 1.581-3.454 4.614-7.322 8.54-10.953 11.04-4.298 3.007-7.938 3.73-10.191 2.153l-10.753-7.529c-2.283-1.598-2.796-5.275-1.472-10.363l.259-.88.258-.881c1.433-4.349 3.97-9.251 7.233-13.91 3.272-4.61 6.981-8.692 10.628-11.534zm-7.12 33.053l.021-.03c.182-.58.395-1.139.598-1.748l.318-.839c.054-.14.127-.309.18-.449l.021-.03.16-.419c.041-.059.032-.11.073-.17.033-.11.095-.198.148-.338.021-.03.032-.11.053-.14l.106-.28c.148-.338.305-.626.474-.995l.094-.199.284-.597a64.456 64.456 0 0 1 4.644-7.718 63.407 63.407 0 0 1 5.623-6.944c.237-.276.484-.5.722-.776.351-.374.732-.726 1.063-1.07l.462-.34c.226-.195.401-.382.628-.577.02-.03.092-.068.113-.098l.02-.03.36-.323c.073-.038.114-.097.206-.165l.042-.06c.185-.136.36-.322.545-.458.072-.039.134-.128.206-.166l.34-.293c.07-.038.133-.128.205-.166.041-.06.092-.068.134-.127l.02-.03-9.16-6.414c-3.606 2.783-7.395 6.853-10.7 11.572-3.304 4.719-5.853 9.701-7.164 14.003l9.161 6.414zm17.204-22.587c-.042.06-.093.068-.134.127l-.042.06-.042.06-.041.059-.02.03c-.206.165-.382.352-.608.547l-.36.323c-.36.322-.691.666-1.042 1.04-.217.246-.464.47-.681.717-1.91 2.024-3.744 4.323-5.448 6.757a60.446 60.446 0 0 0-4.498 7.51c-.136.259-.272.517-.378.797-.148.338-.305.627-.432.936-.127.309-.263.567-.39.877l-.16.419-.02.03-.16.419c-.032.11-.073.17-.106.28 2.48-2.2 5.033-5.014 7.346-8.126.425-.543.779-1.048 1.132-1.552.415-.594.81-1.158 1.154-1.713 2.023-3.272 3.71-6.514 4.93-9.597zm.546-12.223c-1.562-1.094-5.074.463-7.252 1.916l8.802 6.29a24.552 24.552 0 0 1 2.714-1.638c.265-.124.5-.268.746-.362.245-.094.46-.21.704-.303.072-.038.173-.056.245-.094.173-.056.296-.103.469-.158.102-.018.173-.056.275-.073.122-.047.275-.073.397-.12.102-.017.173-.056.275-.073.102-.017.173-.056.275-.073l-7.63-5.342-.02.03zm-7.62 43.23c3.466-2.394 7.2-6.193 10.53-10.629l1.102-1.573c.395-.564.79-1.128 1.154-1.712 3.009-4.617 5.26-9.366 6.333-13.391 1.117-4.216.846-7.281-.716-8.375l-.15-.105c-.12-.084-.231-.118-.292-.16a3.701 3.701 0 0 0-.958-.229c-.132-.003-.294-.028-.425-.032-.183.005-.335.031-.518.036l-.254.043a9.2 9.2 0 0 0-2.374.77c-.194.086-.44.18-.654.294-.266.124-.501.269-.767.392l-.215.115c-.214.115-.378.222-.593.337a1.28 1.28 0 0 1-.307.183c-.164.106-.328.212-.513.348a1.778 1.778 0 0 0-.39.302.666.666 0 0 0-.206.166c-1.214 3.97-3.347 8.36-6.22 12.718-.344.555-.76 1.149-1.196 1.772a35.604 35.604 0 0 1-1.152 1.582c-3.154 4.249-6.59 7.814-9.928 10.342a24.567 24.567 0 0 0-.738 3.42c-.034.241-.069.482-.053.715-.067.926-.04 1.785.089 2.495l.027.152.01.05c.057.174.085.326.113.478.049.122.106.295.155.418.136.317.314.574.513.801.07.093.19.177.28.24l.15.106c1.61 1.216 4.583.422 8.163-2.07zm-18.898-5.36l7.66 5.364a.963.963 0 0 1-.026-.283c-.018-.102-.007-.182-.025-.284.002-.13-.026-.283-.024-.414-.018-.101-.007-.182-.025-.283-.007-.182-.005-.313-.012-.495.012-.08-.007-.182-.016-.232.004-.263.009-.525.044-.766.004-.262.06-.533.085-.825.048-.453.147-.914.217-1.396.11-.542.242-1.113.394-1.714l.173.369-9.16-6.415c-1.097 4.187-.846 6.281.715 7.375z"/><path d="M157.675 44.479c.372-.403.723-.777 1.124-1.159a4.428 4.428 0 0 1 5.674-.495 4.38 4.38 0 0 1 1.86 3.16 4.389 4.389 0 0 1-1.175 3.468l-.238.276a61.205 61.205 0 0 0-5.519 6.795 61.205 61.205 0 0 0-4.497 7.51l-.157.289a4.389 4.389 0 0 1-2.857 2.29 4.38 4.38 0 0 1-3.606-.668c-1.772-1.24-2.401-3.539-1.476-5.5.231-.458.453-.966.684-1.423a62.886 62.886 0 0 1 4.58-7.63 62.886 62.886 0 0 1 5.603-6.913zm-9.2 15.055c-.23.457-.482.945-.662 1.394-.674 1.474-.227 3.202 1.094 4.127.781.547 1.76.746 2.717.531a3.312 3.312 0 0 0 2.148-1.725l.177-.318a62.886 62.886 0 0 1 4.581-7.629A62.886 62.886 0 0 1 164.132 49l.238-.275c.66-.688.982-1.657.887-2.609-.095-.95-.618-1.803-1.429-2.37-1.321-.926-3.128-.776-4.252.383-.351.373-.732.726-1.104 1.129a61.205 61.205 0 0 0-9.996 14.276z"/><path d="M163.258 44.496c1.081.757 1.338 2.308.548 3.436-.79 1.128-2.305 1.438-3.416.66-1.081-.758-1.338-2.309-.548-3.436.82-1.107 2.335-1.417 3.416-.66zm-2.244 3.205c.6.42 1.434.253 1.891-.4.458-.653.33-1.494-.27-1.915-.601-.42-1.435-.252-1.892.4-.457.654-.3 1.516.27 1.915z"/></g><g fill="#2E83F8"><path d="M401.023 366.318l-11.68 4.704a1 1 0 0 1-1.37-.84l-.64-7.308a1 1 0 0 1 1.203-1.066l12.32 2.604a1 1 0 0 1 .167 1.906zm-45.737 52.427l-3.294-12.35a1 1 0 0 1 1-1.258l7.443.26a1 1 0 0 1 .911 1.324l-4.148 12.09a1 1 0 0 1-1.912-.066z"/><path d="M393.88 365.154l-2.519 2.52c-12.15-.177-21.245 3.49-27.287 11-6.041 7.511-8.111 17.48-6.21 29.904l-2.38 2.382c-1.832-15.121.364-26.551 6.588-34.29 6.225-7.737 16.827-11.576 31.809-11.516z"/></g><g fill="#2E83F8"><path d="M424.102 176.582l-2.2 12.399a1 1 0 0 1-1.44.716l-6.536-3.33a1 1 0 0 1-.266-1.585l8.737-9.069a1 1 0 0 1 1.705.869zm20.223 66.569l-12.22-3.75a1 1 0 0 1-.535-1.516l4.164-6.174a1 1 0 0 1 1.606-.07l8.055 9.924a1 1 0 0 1-1.07 1.586z"/><path d="M419.33 182.022l.802 3.473c-6.589 10.209-8.3 19.865-5.131 28.97 3.168 9.103 10.524 16.14 22.068 21.112l.76 3.281c-13.795-6.46-22.324-14.378-25.588-23.758-3.264-9.379-.901-20.405 7.088-33.078z"/></g><g fill="#2E83F8"><path d="M250.349 90.175l11.111 5.924a1 1 0 0 1 .237 1.59l-5.187 5.187a1 1 0 0 1-1.59-.237l-5.924-11.111a1 1 0 0 1 1.353-1.353zm69.56 1.337l-7.344 10.463a1 1 0 0 1-1.606.04l-4.585-5.867a1 1 0 0 1 .429-1.55l11.928-4.593a1 1 0 0 1 1.178 1.507z"/><path d="M254.048 96.395l3.55.31c7.674 9.42 16.329 14.032 25.966 13.832 9.637-.2 18.604-5.021 26.9-14.465l3.355.293c-10.407 11.123-20.574 16.787-30.503 16.993-9.928.206-19.685-5.448-29.268-16.963z"/></g><path fill="#2E83F8" fill-rule="nonzero" d="M276.487 78.492a5.106 5.106 0 0 0-.392 6.76 5.035 5.035 0 0 0 6.634 1.155l2.84 2.855c.8.804.8 2.103 0 2.907l-.626.63a1.167 1.167 0 0 0 0 1.646 1.153 1.153 0 0 0 1.636 0l1.531-1.54a.762.762 0 0 1 1.081 0 .77.77 0 0 1 0 1.086l-1.532 1.541a1.167 1.167 0 0 0 0 1.645 1.153 1.153 0 0 0 1.636 0l1.444-1.453a3.228 3.228 0 0 0-.001-4.552l-6.376-6.413a5.104 5.104 0 0 0-1.162-6.662 5.033 5.033 0 0 0-6.713.395zm1.39 1.387a3 3 0 1 1-.877 2.122 2.978 2.978 0 0 1 .872-2.118l.006-.004zm159.61 118.613a5.106 5.106 0 0 0-.392 6.76 5.035 5.035 0 0 0 6.634 1.155l2.84 2.855c.8.804.8 2.103 0 2.907l-.626.63a1.167 1.167 0 0 0 0 1.646 1.153 1.153 0 0 0 1.636 0l1.531-1.54a.762.762 0 0 1 1.081 0 .77.77 0 0 1 0 1.086l-1.532 1.541a1.167 1.167 0 0 0 0 1.645 1.153 1.153 0 0 0 1.636 0l1.444-1.453a3.228 3.228 0 0 0-.001-4.552l-6.376-6.413a5.104 5.104 0 0 0-1.162-6.662 5.033 5.033 0 0 0-6.713.395zm1.39 1.387a3 3 0 1 1-.877 2.122 2.978 2.978 0 0 1 .872-2.118l.006-.004zm-60.39 187.613a5.106 5.106 0 0 0-.392 6.76 5.035 5.035 0 0 0 6.634 1.155l2.84 2.855c.8.804.8 2.103 0 2.907l-.626.63a1.167 1.167 0 0 0 0 1.646 1.153 1.153 0 0 0 1.636 0l1.531-1.54a.762.762 0 0 1 1.081 0 .77.77 0 0 1 0 1.086l-1.532 1.541a1.167 1.167 0 0 0 0 1.645 1.153 1.153 0 0 0 1.636 0l1.444-1.453a3.228 3.228 0 0 0-.001-4.552l-6.376-6.413a5.104 5.104 0 0 0-1.162-6.662 5.033 5.033 0 0 0-6.713.395zm1.39 1.387a3 3 0 1 1-.877 2.122 2.978 2.978 0 0 1 .872-2.118l.006-.004zm-202.39-1.387a5.106 5.106 0 0 0-.392 6.76 5.035 5.035 0 0 0 6.634 1.155l2.84 2.855c.8.804.8 2.103 0 2.907l-.626.63a1.167 1.167 0 0 0 0 1.646 1.153 1.153 0 0 0 1.636 0l1.531-1.54a.762.762 0 0 1 1.081 0 .77.77 0 0 1 0 1.086l-1.532 1.541a1.167 1.167 0 0 0 0 1.645 1.153 1.153 0 0 0 1.636 0l1.444-1.453a3.228 3.228 0 0 0-.001-4.552l-6.376-6.413a5.104 5.104 0 0 0-1.162-6.662 5.033 5.033 0 0 0-6.713.395zm1.39 1.387a3 3 0 1 1-.877 2.122 2.978 2.978 0 0 1 .872-2.118l.006-.004z"/><g fill="#2E83F8"><path d="M138.95 175.582l2.2 12.399a1 1 0 0 0 1.44.716l6.536-3.33a1 1 0 0 0 .266-1.585l-8.737-9.069a1 1 0 0 0-1.705.869zm-20.223 66.569l12.22-3.75a1 1 0 0 0 .535-1.516l-4.164-6.174a1 1 0 0 0-1.606-.07l-8.055 9.924a1 1 0 0 0 1.07 1.586z"/><path d="M143.723 181.022l-.803 3.473c6.59 10.209 8.3 19.865 5.132 28.97-3.169 9.103-10.525 16.14-22.07 21.112l-.758 3.281c13.794-6.46 22.324-14.378 25.588-23.758 3.264-9.379.9-20.405-7.09-33.078z"/></g><path fill="#2E83F8" fill-rule="nonzero" d="M116.487 196.492a5.106 5.106 0 0 0-.392 6.76 5.035 5.035 0 0 0 6.634 1.155l2.84 2.855c.8.804.8 2.103 0 2.907l-.626.63a1.167 1.167 0 0 0 0 1.646 1.153 1.153 0 0 0 1.636 0l1.531-1.54a.762.762 0 0 1 1.081 0 .77.77 0 0 1 0 1.086l-1.532 1.541a1.167 1.167 0 0 0 0 1.645 1.153 1.153 0 0 0 1.636 0l1.444-1.453a3.228 3.228 0 0 0-.001-4.552l-6.376-6.413a5.104 5.104 0 0 0-1.162-6.662 5.033 5.033 0 0 0-6.713.395zm1.39 1.387a3 3 0 1 1-.877 2.122 2.978 2.978 0 0 1 .872-2.118l.006-.004z"/><circle cx="80" cy="195" r="14" fill="#19395E"/><circle cx="283" cy="48" r="14" fill="#19395E"/><circle cx="486" cy="195" r="14" fill="#19395E"/><circle cx="406" cy="433" r="14" fill="#19395E"/><circle cx="156" cy="433" r="14" fill="#19395E"/><path fill="#2E83F8" d="M283 60c-6.627 0-12-5.373-12-12s5.373-12 12-12 12 5.373 12 12-5.373 12-12 12zm-7-8.33c0 .71.296 1.33 1.352 1.33 1.055 0 1.352-.62 1.352-1.33v-4.426c0-1.239.926-2.058 1.963-2.058 1.055 0 1.481.765 1.481 1.712v4.772c0 .71.296 1.33 1.352 1.33s1.352-.62 1.352-1.33v-4.426c0-1.239.926-2.058 1.963-2.058 1.055 0 1.481.765 1.481 1.712v4.772c0 .71.297 1.33 1.352 1.33 1.056 0 1.352-.62 1.352-1.33v-5.446c0-2.386-1.5-3.224-3.37-3.224-1.463 0-2.426.638-3.186 1.676-.5-1.257-1.666-1.676-2.592-1.676-1.37 0-2.556.62-3.26 1.676h-.036v-.346c0-.802-.482-1.33-1.278-1.33-.797 0-1.278.528-1.278 1.33v7.34zM156 445c-6.627 0-12-5.373-12-12s5.373-12 12-12 12 5.373 12 12-5.373 12-12 12zm-7-8.33c0 .71.296 1.33 1.352 1.33 1.055 0 1.352-.62 1.352-1.33v-4.426c0-1.239.926-2.058 1.963-2.058 1.055 0 1.481.765 1.481 1.712v4.772c0 .71.296 1.33 1.352 1.33s1.352-.62 1.352-1.33v-4.426c0-1.239.926-2.058 1.963-2.058 1.055 0 1.481.765 1.481 1.712v4.772c0 .71.297 1.33 1.352 1.33 1.056 0 1.352-.62 1.352-1.33v-5.446c0-2.386-1.5-3.224-3.37-3.224-1.463 0-2.426.638-3.186 1.676-.5-1.257-1.666-1.676-2.592-1.676-1.37 0-2.556.62-3.26 1.676h-.036v-.346c0-.802-.482-1.33-1.278-1.33-.797 0-1.278.528-1.278 1.33v7.34zM406 445c-6.627 0-12-5.373-12-12s5.373-12 12-12 12 5.373 12 12-5.373 12-12 12zm-7-8.33c0 .71.296 1.33 1.352 1.33 1.055 0 1.352-.62 1.352-1.33v-4.426c0-1.239.926-2.058 1.963-2.058 1.055 0 1.481.765 1.481 1.712v4.772c0 .71.296 1.33 1.352 1.33s1.352-.62 1.352-1.33v-4.426c0-1.239.926-2.058 1.963-2.058 1.055 0 1.481.765 1.481 1.712v4.772c0 .71.297 1.33 1.352 1.33 1.056 0 1.352-.62 1.352-1.33v-5.446c0-2.386-1.5-3.224-3.37-3.224-1.463 0-2.426.638-3.186 1.676-.5-1.257-1.666-1.676-2.592-1.676-1.37 0-2.556.62-3.26 1.676h-.036v-.346c0-.802-.482-1.33-1.278-1.33-.797 0-1.278.528-1.278 1.33v7.34zM486 207c-6.627 0-12-5.373-12-12s5.373-12 12-12 12 5.373 12 12-5.373 12-12 12zm-7-8.33c0 .71.296 1.33 1.352 1.33 1.055 0 1.352-.62 1.352-1.33v-4.426c0-1.239.926-2.058 1.963-2.058 1.055 0 1.481.765 1.481 1.712v4.772c0 .71.296 1.33 1.352 1.33s1.352-.62 1.352-1.33v-4.426c0-1.239.926-2.058 1.963-2.058 1.055 0 1.481.765 1.481 1.712v4.772c0 .71.297 1.33 1.352 1.33 1.056 0 1.352-.62 1.352-1.33v-5.446c0-2.386-1.5-3.224-3.37-3.224-1.463 0-2.426.638-3.186 1.676-.5-1.257-1.666-1.676-2.592-1.676-1.37 0-2.556.62-3.26 1.676h-.036v-.346c0-.802-.482-1.33-1.278-1.33-.797 0-1.278.528-1.278 1.33v7.34zM80 207c-6.627 0-12-5.373-12-12s5.373-12 12-12 12 5.373 12 12-5.373 12-12 12zm-7-8.33c0 .71.296 1.33 1.352 1.33 1.055 0 1.352-.62 1.352-1.33v-4.426c0-1.239.926-2.058 1.963-2.058 1.055 0 1.481.765 1.481 1.712v4.772c0 .71.296 1.33 1.352 1.33s1.352-.62 1.352-1.33v-4.426c0-1.239.926-2.058 1.963-2.058 1.055 0 1.481.765 1.481 1.712v4.772c0 .71.297 1.33 1.352 1.33 1.056 0 1.352-.62 1.352-1.33v-5.446c0-2.386-1.5-3.224-3.37-3.224-1.463 0-2.426.638-3.186 1.676-.5-1.257-1.666-1.676-2.592-1.676-1.37 0-2.556.62-3.26 1.676h-.036v-.346c0-.802-.482-1.33-1.278-1.33-.797 0-1.278.528-1.278 1.33v7.34z"/><g fill="#2E83F8"><path d="M168.977 366.318l11.68 4.704a1 1 0 0 0 1.37-.84l.64-7.308a1 1 0 0 0-1.203-1.066l-12.32 2.604a1 1 0 0 0-.167 1.906zm45.737 52.427l3.294-12.35a1 1 0 0 0-1-1.258l-7.443.26a1 1 0 0 0-.911 1.324l4.148 12.09a1 1 0 0 0 1.912-.066z"/><path d="M176.12 365.154l2.519 2.52c12.15-.177 21.245 3.49 27.287 11 6.041 7.511 8.111 17.48 6.21 29.904l2.38 2.382c1.832-15.121-.364-26.551-6.588-34.29-6.225-7.737-16.827-11.576-31.809-11.516z"/></g><circle cx="412" cy="81" r="81" fill="#19395E"/><circle cx="412" cy="81" r="77" fill="#2E83F8"/><g fill="#FFF" fill-rule="nonzero" transform="translate(393 37)"><path d="M21.5 25.396c4.3 0 6.67-2.871 6.78-2.981.442-.552.332-1.325-.165-1.767-.55-.442-1.323-.387-1.819.166-.055.055-1.709 2.042-4.796 2.042s-4.686-1.932-4.796-2.042c-.441-.553-1.268-.608-1.82-.166-.55.442-.66 1.27-.165 1.822.11.055 2.481 2.926 6.781 2.926z"/><ellipse cx="16.924" cy="14.851" rx="1.764" ry="1.767"/><ellipse cx="26.076" cy="14.851" rx="1.764" ry="1.767"/><path d="M33.518 24.789c1.158-2.043 1.82-4.362 1.82-6.791v-.718c.385-.828.66-2.153.66-4.196 0-7.177-2.094-12.145-9.426-12.642C14.995-.386 6.836 3.533 6.836 12.422c0 2.705.386 3.588.992 4.361v1.27c0 2.485.662 4.803 1.82 6.79C3.747 29.317.22 36.714.22 44.775c0 .607 0 1.215.055 1.822.11 1.49 1.102 2.815 2.48 3.257 5.734 1.932 12.294 2.981 18.854 2.981 6.616 0 13.12-1.049 18.854-2.98 1.433-.498 2.37-1.768 2.48-3.258.056-.607.056-1.215.056-1.822-.055-8.116-3.583-15.514-9.482-19.985zM21.39 9.606c3.087 0 9.592-1.6 9.647.939.11 2.981.772 5.245 1.599 6.514 0 .276.055.608.055.884 0 6.183-5.017 11.262-11.246 11.262-6.174 0-11.246-5.079-11.246-11.262 0-.442.055-.884.11-1.325.827-1.38 1.544-3.644 1.874-6.736.331-2.815 6.01-.276 9.207-.276zM40.299 46.32c0 .441-.331.883-.717.994-1.378.441-2.811.883-4.3 1.214-.276-6.349-1.378-10.765-3.363-13.14-.44-.552-1.268-.607-1.819-.165-.551.442-.606 1.27-.165 1.822 1.157 1.38 2.536 4.637 2.811 12.09-3.638.718-7.387 1.05-11.246 1.05-3.804 0-7.608-.387-11.191-1.05.276-7.453 1.654-10.71 2.812-12.09.44-.552.385-1.38-.166-1.822-.551-.442-1.378-.387-1.82.166-1.929 2.373-3.086 6.79-3.362 13.14-1.488-.332-2.922-.774-4.3-1.215-.386-.166-.717-.553-.717-.994-.055-.552-.055-1.104-.055-1.656 0-7.233 3.087-13.803 8.325-17.833 2.536 2.982 6.284 4.914 10.53 4.914 4.244 0 7.993-1.933 10.529-4.914 5.237 3.975 8.324 10.6 8.324 17.833-.055.607-.055 1.159-.11 1.656z"/></g></g></svg>