<svg xmlns="http://www.w3.org/2000/svg" width="36" height="69"><g fill="#2E83F8" fill-rule="evenodd"><path d="M21.95 1.582l2.2 12.399a1 1 0 0 0 1.44.716l6.536-3.33a1 1 0 0 0 .266-1.585L23.655.713a1 1 0 0 0-1.705.869zM1.727 68.151l12.22-3.75a1 1 0 0 0 .535-1.516l-4.164-6.174a1 1 0 0 0-1.606-.07L.657 66.564a1 1 0 0 0 1.07 1.586z"/><path d="M26.723 7.022l-.803 3.473c6.59 10.209 8.3 19.865 5.132 28.97-3.169 9.103-10.525 16.14-22.07 21.112l-.758 3.281C22.018 57.398 30.548 49.48 33.812 40.1c3.264-9.379.9-20.405-7.09-33.078z"/></g></svg>