<svg xmlns="http://www.w3.org/2000/svg" width="36" height="69"><g fill="#2E83F8" fill-rule="evenodd"><path d="M14.102 1.582l-2.2 12.399a1 1 0 0 1-1.44.716l-6.536-3.33a1 1 0 0 1-.266-1.585L12.397.713a1 1 0 0 1 1.705.869zm20.223 66.569l-12.22-3.75a1 1 0 0 1-.535-1.516l4.164-6.174a1 1 0 0 1 1.606-.07l8.055 9.924a1 1 0 0 1-1.07 1.586z"/><path d="M9.33 7.022l.802 3.473c-6.589 10.209-8.3 19.865-5.131 28.97 3.168 9.103 10.524 16.14 22.068 21.112l.76 3.281C14.033 57.398 5.504 49.48 2.24 40.1c-3.264-9.379-.901-20.405 7.088-33.078z"/></g></svg>