<svg xmlns="http://www.w3.org/2000/svg" width="73" height="24"><g fill="#2E83F8" fill-rule="evenodd"><path d="M2.349.175L13.46 6.099a1 1 0 0 1 .237 1.59L8.51 12.876a1 1 0 0 1-1.59-.237L.996 1.528A1 1 0 0 1 2.349.175zm69.56 1.337l-7.344 10.463a1 1 0 0 1-1.606.04l-4.585-5.867a1 1 0 0 1 .429-1.55L70.73.006a1 1 0 0 1 1.178 1.507z"/><path d="M6.048 6.395l3.55.31c7.674 9.42 16.329 14.032 25.966 13.832 9.637-.2 18.604-5.021 26.9-14.465l3.355.293C55.412 17.488 45.245 23.152 35.316 23.358c-9.928.206-19.685-5.448-29.268-16.963z"/></g></svg>