<svg xmlns="http://www.w3.org/2000/svg" width="20" height="25"><g fill="#FFF"><path d="M19.582 11.487c-.143.244-.37.441-.66.545a8.796 8.796 0 0 0-4.624 3.816 8.569 8.569 0 0 0-1.047 5.848 1.242 1.242 0 0 1-1.022 1.438 1.26 1.26 0 0 1-1.46-1.006 11.02 11.02 0 0 1 1.347-7.52 11.311 11.311 0 0 1 5.945-4.909 1.267 1.267 0 0 1 1.615.743c.132.36.086.739-.094 1.045z"/><path d="M17.858 6.825a1.25 1.25 0 0 1-.661.545 13.821 13.821 0 0 0-7.265 5.998 13.464 13.464 0 0 0-1.646 9.189 1.242 1.242 0 0 1-1.022 1.438 1.258 1.258 0 0 1-1.46-1.006 15.92 15.92 0 0 1 1.945-10.862 16.338 16.338 0 0 1 8.587-7.09 1.266 1.266 0 0 1 1.615.743c.132.36.086.74-.093 1.045z"/><path d="M16.133 2.162c-.143.244-.37.441-.661.545a18.912 18.912 0 0 0-5.598 3.152 18.614 18.614 0 0 0-4.308 5.028 18.36 18.36 0 0 0-2.271 6.186 18.246 18.246 0 0 0 .025 6.347 1.242 1.242 0 0 1-1.022 1.437c-.685.12-1.34-.33-1.46-1.006a20.68 20.68 0 0 1-.028-7.194 20.8 20.8 0 0 1 2.573-7.01 21.099 21.099 0 0 1 4.883-5.699A21.453 21.453 0 0 1 14.611.376a1.267 1.267 0 0 1 1.615.742 1.22 1.22 0 0 1-.093 1.044z"/></g></svg>