<svg xmlns="http://www.w3.org/2000/svg" width="32" height="1257"><g fill="none" fill-rule="evenodd"><path fill="#27BBFF" d="M14 950.876v121.248c-7.893.984-14 7.717-14 15.876 0 8.16 6.107 14.892 14 15.876v121.248c-7.893.984-14 7.717-14 15.876 0 8.837 7.163 16 16 16s16-7.163 16-16c0-7.811-5.597-14.315-13-15.72v-121.56c7.403-1.405 13-7.909 13-15.72 0-7.811-5.597-14.315-13-15.72V950.72c7.403-1.405 13-7.909 13-15.72 0-7.811-5.597-14.315-13-15.72V797.72c7.403-1.405 13-7.909 13-15.72 0-7.811-5.597-14.315-13-15.72V644.72c7.403-1.405 13-7.909 13-15.72 0-7.811-5.597-14.315-13-15.72V491.72c7.403-1.405 13-7.909 13-15.72 0-7.811-5.597-14.315-13-15.72V338.72c7.403-1.405 13-7.909 13-15.72 0-7.811-5.597-14.315-13-15.72V185.72c7.403-1.405 13-7.909 13-15.72 0-7.811-5.597-14.315-13-15.72V31.72c7.403-1.406 13-7.91 13-15.72C32 8.189 26.403 1.685 19 .28V0h-5v.124C6.107 1.108 0 7.84 0 16s6.107 14.892 14 15.876v122.248C6.107 155.108 0 161.84 0 170s6.107 14.892 14 15.876v121.248C6.107 308.108 0 314.84 0 323s6.107 14.892 14 15.876v121.248C6.107 461.108 0 467.84 0 476s6.107 14.892 14 15.876v121.248C6.107 614.108 0 620.84 0 629s6.107 14.892 14 15.876v121.247c-7.893.985-14 7.718-14 15.877 0 8.16 6.107 14.892 14 15.876v121.248C6.107 920.108 0 926.84 0 935s6.107 14.892 14 15.876z" opacity=".292"/><circle cx="16" cy="16" r="10" fill="#3EC2FF"/><circle cx="16" cy="170" r="10" fill="#3EC2FF"/><circle cx="16" cy="323" r="10" fill="#3EC2FF"/><circle cx="16" cy="476" r="10" fill="#3EC2FF"/><circle cx="16" cy="629" r="10" fill="#3EC2FF"/><circle cx="16" cy="782" r="10" fill="#3EC2FF"/><circle cx="16" cy="935" r="10" fill="#3EC2FF"/><circle cx="16" cy="1088" r="10" fill="#3EC2FF"/><circle cx="16" cy="1241" r="10" fill="#3EC2FF"/></g></svg>